<ttFont>
          <CharString index="0">
            rmoveto
            216 91 156 195 193 -105 129 -180 -34 callgsubr
            20 57 rmoveto
            -142 -76 74 201 258 94 23 112 115 83 -47 -234 -172 -52 -103 -134 hvcurveto
            return
          </CharString>
          <CharString index="1">
            rmoveto
            152 81 120 152 146 -72 95 -143 -27 callsubr
            19 58 rmoveto
            -108 -32 77 119 128 21 73 112 99 32 -65 -136 -123 -29 -73 -95 hvcurveto
            return
          </CharString>
          <CharString index="2">
            rmoveto
            39 22 32 36 37 -22 23 -34 -36 -25 -31 -35 -37 22 -25 34 hvcurveto
            return
          </CharString>
          <CharString index="3">
            -76 callgsubr
            -64 16 -230 596 rlineto
            -48 hlineto
            -221 -596 rlineto
            331 186 rmoveto
            -200 hlineto
            97 273 rlineto
            return
          </CharString>
          <CharString index="4">
            rmoveto
            -43 467 vlineto
            hintmask 0110101101000000
            164 -49 vlineto
            hintmask 1010101101000000
            -22 -100 callgsubr
            hintmask 1010101110000000
            121 hlineto
            hintmask 1011001110000000
            21 -109 rlineto
            49 hlineto
            hintmask 1010101110000000
            164 -458 vlineto
            hintmask 1010011101000000
            -69 callgsubr
          </CharString>
          <CharString index="5">
            -66 40 -58 102 64 53 37 12 11 vhcurveto
            -1 191 rmoveto
            -159 vlineto
            0 -39 -18 -50 -60 -32 35 41 64 57 28 124 9 vhcurveto
            return
          </CharString>
          <CharString index="6">
            rmoveto
            23 -26 80 36 79 -25 rlineto
            -8 25 25 -7 20 hhcurveto
            25 21 8 21 15 hvcurveto
            37 49 -23 26 -80 -36 -79 25 rlineto
            8 -25 -25 7 -20 hhcurveto
            -25 -21 -8 -21 -15 hvcurveto
            return
          </CharString>
          <CharString index="7">
            -340 vlineto
            0 -49 -28 -48 -92 -17 40 76 vhcurveto
            318 vlineto
            -28 14 -137 -28 -31 callgsubr
            return
          </CharString>
          <CharString index="8">
            rmoveto
            28 -30 174 120 rlineto
            41 -12 -22 21 -17 hhcurveto
            -14 -12 -13 -18 -16 hvcurveto
            return
          </CharString>
          <CharString index="9">
            -79 -53 -7 -12 -18 -10 2 -9 7 -13 vhcurveto
            5 21 23 3 19 hhcurveto
            35 14 return
          </CharString>
          <CharString index="10">
            rmoveto
            -51 -13 rlineto
            0 9 -140 144 144 5 147 0 vhcurveto
            -34 8 rlineto
            0 -9 -90 -99 -101 -8 88 0 vhcurveto
            return
          </CharString>
          <CharString index="11">
            -10 callsubr
            419 vlineto
            -28 14 -3 callsubr
            return
          </CharString>
          <CharString index="12">
            rmoveto
            53 callsubr
            -250 vlineto
            -48 -43 -50 -27 -63 hhcurveto
            -113 -25 84 119 hvcurveto
            124 -83 callgsubr
            -144 vlineto
            -150 44 -96 160 70 53 19 41 54 vhcurveto
            -20 vlineto
            -108 -39 -94 -128 vhcurveto
            hintmask 11110100
            -47 -45 13 27 -49 hvcurveto
            -29 110 rlineto
            -48 -144 hlineto
            -40 74 68 -17 76 hhcurveto
            158 96 73 192 hvcurveto
            338 vlineto
            73 15 rlineto
            44 vlineto
            endchar
          </CharString>
          <CharString index="13">
            -93 callgsubr
            -31 -20 -9 -43 vhcurveto
            -193 -45 hlineto
            82 -16 rlineto
            -309 vlineto
            -146 -35 -79 -125 -142 -34 48 177 vhcurveto
            311 -83 callgsubr
            -311 vlineto
            -193 43 -98 189 208 48 101 190 vhcurveto
            return
          </CharString>
          <CharString index="14">
            31 hlineto
            0 53 39 67 vvcurveto
            24 -13 28 -35 -13 -18 -6 -16 -14 vhcurveto
            14 -13 12 -19 -25 vvcurveto
            -28 -7 -22 43 callgsubr
          </CharString>
          <CharString index="15">
            vlineto
            82 15 rlineto
            44 -251 -44 vlineto
            return
          </CharString>
          <CharString index="16">
            96 -97 rlineto
            -15 15 19 -17 17 hhcurveto
            17 17 14 18 17 hvcurveto
            97 100 -25 33 -116 -88 -120 87 rlineto
            return
          </CharString>
          <CharString index="17">
            rmoveto
            -3 callsubr
            -290 vlineto
            -13 -23 -39 -15 -35 hhcurveto
            -92 -17 40 76 hvcurveto
            268 -26 callgsubr
            -245 47 callsubr
            62 51 26 30 28 vhcurveto
            -40 vlineto
            -92 -30 -80 -97 vhcurveto
            return
          </CharString>
          <CharString index="18">
            174 -120 28 30 -109 121 rlineto
            18 -16 -12 13 -14 hhcurveto
            -17 -22 -21 -41 -12 hvcurveto
            return
          </CharString>
          <CharString index="19">
            -93 callgsubr
            -35 -28 -33 -32 -26 vhcurveto
            79 -47 -82 47 -108 hhcurveto
            -34 callgsubr
            hintmask 11110000
            216 91 156 195 64 -12 57 -22 48 hvcurveto
            hintmask 11111000
            85 59 27 52 36 vvcurveto
            hintmask 11110000
            -365 -610 rmoveto
            -142 -76 74 201 258 94 23 112 115 83 -47 -234 -172 -52 -103 -134 hvcurveto
            endchar
          </CharString>
          <CharString index="20">
            rmoveto
            -43 252 43 vlineto
            -83 17 rlineto
            213 86 vlineto
            137 -243 rlineto
            -20 11 22 -10 22 hhcurveto
            104 43 hlineto
            -68 19 -141 231 rlineto
            64 28 77 41 126 vvcurveto
            112 -88 48 -111 vhcurveto
            -284 hlineto
            return
          </CharString>
          <CharString index="21">
            rmoveto
            -13 30 rlineto
            0 -48 -21 -64 -104 -57 49 136 133 31 67 101 41 24 -12 0 vhcurveto
            16 -94 rlineto
            0 7 -7 25 29 17 25 21 65 -52 60 -101 -148 -78 -127 -143 -159 92 -84 122 102 58 61 0 vhcurveto
            endchar
          </CharString>
          <CharString index="22">
            -166 459 rlineto
            18 -21 callgsubr
            -253 -41 vlineto
            74 -16 28 -76 -139 -399 -138 457 rlineto
            18 -21 callgsubr
            -240 -41 vlineto
            61 -16 195 -596 rlineto
            59 hlineto
            158 435 170 -435 rlineto
            59 hlineto
            184 596 59 16 rlineto
            41 vlineto
            endchar
          </CharString>
          <CharString index="23">
            65 0 4 callgsubr
            173 42 25 49 -40 49 hintmask 1010101101000000
            return
          </CharString>
          <CharString index="24">
            669 rmoveto
            22 -12 -9 29 -27 hhcurveto
            -13 -19 -14 -33 -20 hvcurveto
            128 -137 30 22 rlineto
            103 111 rmoveto
            22 -12 -9 29 -27 hhcurveto
            -13 -19 -14 -33 -20 hvcurveto
            128 -137 30 22 rlineto
            return
          </CharString>
          <CharString index="25">
            rmoveto
            -143 vlineto
            -27 30 83 -27 79 hhcurveto
            102 117 53 141 hvcurveto
            hintmask 11011000
            49 callgsubr
            hintmask 11010100
            61 43 -23 0 54 callgsubr
            49 151 hlineto
            10 -23 -80 15 -66 hhcurveto
            -132 -82 -73 -110 hvcurveto
            hintmask 11011000
            48 callsubr
            hintmask 11101000
            -65 -43 32 7 -9 hvcurveto
            -15 100 rlineto
            endchar
          </CharString>
          <CharString index="26">
            806 rmoveto
            26 -20 -12 6 -15 hhcurveto
            -18 -18 -21 -39 -10 hvcurveto
            144 -102 28 27 rlineto
            105 103 rmoveto
            26 -20 -12 6 -15 hhcurveto
            -18 -18 -21 -39 -10 hvcurveto
            144 -102 28 27 rlineto
            return
          </CharString>
          <CharString index="27">
            568 -105 callsubr
            return
          </CharString>
          <CharString index="28">
            100 87 63 98 29 -8 37 -22 30 hvcurveto
            18 9 -3 -3 19 hvcurveto
            37 -8 rlineto
            6 7 12 16 21 vvcurveto
            29 -16 14 -28 -39 -46 -40 -2 -3 vhcurveto
            return
          </CharString>
          <CharString index="29">
            42 -185 -46 vlineto
            64 -11 rlineto
            -12 vlineto
            -100 -260 -12 -44 -8 34 -103 270 rlineto
            15 vlineto
            66 9 rlineto
            45 -219 vlineto
            return
          </CharString>
          <CharString index="30">
            -93 callgsubr
            -26 -17 -26 -21 -22 vhcurveto
            65 -34 -62 39 -91 hhcurveto
            -27 callsubr
            return
          </CharString>
          <CharString index="31">
            -28 callgsubr
            -76 16 rlineto
            18 vlineto
            39 111 rlineto
            return
          </CharString>
          <CharString index="32">
            -295 vlineto
            -73 callsubr
            return
          </CharString>
          <CharString index="33">
            -34 -32 6 14 -35 hvcurveto
            -29 110 rlineto
            -48 -144 hlineto
            -26 60 56 -11 62 hhcurveto
            131 79 65 170 hvcurveto
            421 vlineto
            endchar
          </CharString>
          <CharString index="34">
            -88 54 -50 93 93 48 56 0 vhcurveto
            return
          </CharString>
          <CharString index="35">
            rmoveto
            -89 -5 rlineto
            -112 -6 -67 -58 -85 vvcurveto
            -66 40 -58 102 86 53 29 36 39 vhcurveto
            hintmask 1001011110000000
            -43 33 51 -24 74 hhcurveto
            103 56 53 0 hvcurveto
            -9 33 rlineto
            0 -57 -16 -91 -116 -8 89 73 vhcurveto
            269 10 rlineto
            19 1 10 8 18 vvcurveto
            149 -35 95 -136 -58 -50 -25 -43 -36 vhcurveto
            40 -20 -43 28 -56 hhcurveto
            -54 -151 -41 -85 -35 19 -10 24 hvcurveto
            hintmask 1001101110000000
            20 10 7 0 hvcurveto
            22 87 rlineto
            0 26 7 35 63 34 -25 -59 vhcurveto
            300 -63 rmoveto
            -212 -12 rlineto
            hintmask 1001011110000000
            89 27 73 86 73 29 -19 -89 vhcurveto
            hintmask 1001101110000000
            -15 -1 -15 -2 -12 vhcurveto
            hintmask 0110011110000000
            -300 -68 rmoveto
            -137 vlineto
            0 -40 -27 -50 -64 -26 40 41 59 54 23 126 1 vhcurveto
            endchar
          </CharString>
          <CharString index="36">
            -70 callsubr
            -104 callsubr
            19 -688 -105 callsubr
            endchar
          </CharString>
          <CharString index="37">
            rmoveto
            -76 callsubr
            return
          </CharString>
          <CharString index="38">
            555 rmoveto
            51 13 rlineto
            0 -9 140 -144 -144 -5 -147 0 vhcurveto
            34 -8 rlineto
            0 9 90 99 101 8 -88 0 vhcurveto
            return
          </CharString>
          <CharString index="39">
            rmoveto
            -38 vlineto
            0 35 -10 48 70 37 30 52 vhcurveto
            568 vlineto
            -79 callgsubr
            return
          </CharString>
          <CharString index="40">
            58 49 -1 hhcurveto
            -10 32 rlineto
            0 -42 -13 -38 -33 -17 8 42 vhcurveto
            328 127 vlineto
            14 25 rlineto
            28 -141 114 -58 vlineto
            -24 -104 -78 -21 rlineto
            -42 return
          </CharString>
          <CharString index="41">
            -27 -12 -11 -11 -17 vvcurveto
            -9 3 -10 6 -13 vhcurveto
            return
          </CharString>
          <CharString index="42">
            -63 callsubr
            hstemhm
            -9 626 -168 168 hintmask 11110000
            return
          </CharString>
          <CharString index="43">
            rmoveto
            -38 vlineto
            0 36 -10 39 61 29 24 33 13 vhcurveto
            hintmask 10111000
            212 545 54 16 rlineto
            hintmask 11011000
            -78 callsubr
            hintmask 10111000
            -43 vlineto
            58 -16 163 -406 -54 -118 rlineto
            endchar
          </CharString>
          <CharString index="44">
            101 0 41 145 57 410 -20 return
          </CharString>
          <CharString index="45">
            -23 9 -139 -22 rlineto
            -41 vlineto
            80 -14 rlineto
            -567 vlineto
            return
          </CharString>
          <CharString index="46">
            -290 -451 rmoveto
            -108 -32 77 119 128 21 73 112 99 32 -65 -136 -123 -29 -73 -95 hvcurveto
            return
          </CharString>
          <CharString index="47">
            rmoveto
            -43 255 vlineto
            210 138 98 242 213 -125 95 -182 hvcurveto
            -296 hlineto
            return
          </CharString>
          <CharString index="48">
            47 6 rlineto
            5 vlineto
            12 1 8 26 11 vhcurveto
            return
          </CharString>
          <CharString index="49">
            274 0 76 520 64 hstemhm
            53 40 8 98 42 92 105 86 57 99 18 40 hintmask 00000000
            hintmask 11111010
            53 153 rmoveto
            -153 280 55 vlineto
            hintmask 11010110
            -112 92 -22 102 110 vvcurveto
            209 83 28 112 115 72 -60 -178 -111 -31 -100 -112 -92 vhcurveto
            -55 vlineto
            hintmask 11010111
            300 153 -40 hlineto
            -20 -77 rlineto
            -154 5 hlineto
            hintmask 11011010
            73 46 83 116 116 vvcurveto
            168 -96 133 -180 -206 -97 -149 -151 -127 68 -104 72 -46 vhcurveto
            -7 vlineto
            hintmask 11110010
            -128 hlineto
            -20 77 rlineto
            endchar
          </CharString>
          <CharString index="50">
            rmoveto
            7 callsubr
            246 305 -246 vlineto
            -82 -15 rlineto
            -88 callgsubr
            -229 -305 229 vlineto
            83 15 rlineto
            44 -252 -44 vlineto
            83 -15 rlineto
            -530 vlineto
            return
          </CharString>
          <CharString index="51">
            rmoveto
            -52 callgsubr
            -78 14 rlineto
            635 -47 callgsubr
            return
          </CharString>
          <CharString index="52">
            21 callsubr
            187 52 vlineto
            113 -199 rlineto
            4 -6 3 -8 -11 vvcurveto
            -18 162 41 vlineto
            -82 18 -133 230 rlineto
            hintmask 11111000
            116 148 60 16 rlineto
            41 -192 -40 vlineto
            59 -13 rlineto
            -14 vlineto
            -106 -132 rlineto
            -56 return
          </CharString>
          <CharString index="53">
            -161 87 -66 97 72 49 39 19 18 vhcurveto
            376 vmoveto
            -338 vlineto
            -9 -19 -44 -17 -45 hhcurveto
            -96 -30 62 128 148 58 42 82 41 37 -10 -6 16 hvcurveto
            return
          </CharString>
          <CharString index="54">
            19 -25 -35 12 -47 hhcurveto
            -108 -85 -73 -98 -64 35 -61 87 -18 hvcurveto
            return
          </CharString>
          <CharString index="55">
            521 vlineto
            1 30 6 66 162 75 -78 -175 -211 -76 -75 -162 return
          </CharString>
          <CharString index="56">
            0 51 254 57 228 58 -43 43 hstemhm
            142 86 333 101 hintmask 11101100
            59 43 rmoveto
            -43 281 vlineto
            210 112 148 182 212 -113 106 -182 hvcurveto
            -308 hlineto
            hintmask 11011100
            66 callgsubr
            -225 -85 -57 85 -245 vlineto
            86 2 rmoveto
            243 176 57 -176 vlineto
            hintmask 11101100
            221 vlineto
            1 42 6 66 162 63 -88 -175 -194 -66 -82 -166 vhcurveto
            hintmask 11011100
            -89 -12 11 0 hvcurveto
            endchar
          </CharString>
          <CharString index="57">
            -14 28 rlineto
            0 -41 -24 -79 return
          </CharString>
          <CharString index="58">
            -37 -19 -77 -40 -69 vvcurveto
            -80 91 -31 101 132 107 60 98 vhcurveto
            return
          </CharString>
          <CharString index="59">
            63 -39 -21 444 64 return
          </CharString>
          <CharString index="60">
            -145 -21 610.5 49.5 -43 43 return
          </CharString>
          <CharString index="61">
            -43 callgsubr
            hstem
            127 87 336 65 vstem
            return
          </CharString>
          <CharString index="62">
            -79 -103 28 -27 144 102 rlineto
            39 -10 -18 21 -18 hhcurveto
            -15 -12 -6 -26 -20 hvcurveto
            return
          </CharString>
          <CharString index="63">
            -95 callgsubr
            endchar
          </CharString>
          <CharString index="64">
            rmoveto
            18 19 73 84 66 vvcurveto
            34 -20 28 -35 -29 -16 -18 -20 -13 vhcurveto
            16 -13 14 -20 -31 vvcurveto
            -35 -17 -35 -21 -45 vhcurveto
            return
          </CharString>
          <CharString index="65">
            692 rmoveto
            36 -26 131 148 rlineto
            34 -20 -21 14 -16 hhcurveto
            -17 -10 -19 -21 -12 hvcurveto
            return
          </CharString>
          <CharString index="66">
            663 rmoveto
            -10 -57 rlineto
            332 hlineto
            10 57 rlineto
            return
          </CharString>
          <CharString index="67">
            51 callsubr
            vhcurveto
            hintmask 11111010
            -24 callsubr
            hvcurveto
            251 hlineto
            37 11 17 72 92 -47 90 -117 -129 -94 -111 -160 -133 69 -109 146 hvcurveto
            hintmask 11110101
            103 61 66 0 hvcurveto
            hintmask 11111010
            -15 callsubr
          </CharString>
          <CharString index="68">
            -104 callgsubr
            hintmask 10111001
            return
          </CharString>
          <CharString index="69">
            rmoveto
            111 39 65 91 95 -34 61 -106 -104 -47 -64 -94 -88 31 -66 110 hvcurveto
            5 51 rmoveto
            -66 -13 37 68 73 22 32 56 58 21 -22 -83 -70 -13 -35 -65 hvcurveto
            return
          </CharString>
          <CharString index="70">
            220 0 42 474 132 -58 58 -42 42 58 callsubr
            365 61 hintmask 10011100
            return
          </CharString>
          <CharString index="71">
            694 -105 callsubr
            return
          </CharString>
          <CharString index="72">
            -25 callsubr
            hstemhm
            38 88 181 82 hintmask 10111000
            return
          </CharString>
          <CharString index="73">
            -134 rmoveto
            -16 -37 rlineto
            -10 23 20 -6 31 hhcurveto
            return
          </CharString>
          <CharString index="74">
            -328 519 rlineto
            -153 -44 hlineto
            return
          </CharString>
          <CharString index="75">
            4 6 13 5 13 hhcurveto
            11 15 -3 -4 17 hvcurveto
            68 -18 rlineto
            9 4 19 18 26 vvcurveto
            27 -18 21 -38 return
          </CharString>
          <CharString index="76">
            55 callsubr
            hstemhm
            22 83 -66 83 -6 84 119 81 -24 77 return
          </CharString>
          <CharString index="77">
            -10 -29 callsubr
            hstem
            25 28 callgsubr
            vstem
            return
          </CharString>
          <CharString index="78">
            -9 -16 callsubr
            return
          </CharString>
          <CharString index="79">
            4 111 rlineto
            66 9 50 42 0 vvcurveto
            35 vlineto
            0 -53 -19 -83 -90 -52 69 130 131 27 73 107 38 41 -10 0 vhcurveto
            15 -80 rlineto
            50 135 hlineto
            0 -51 19 -65 3 vhcurveto
            -4 106 rlineto
            -56 hlineto
            -4 -111 rlineto
            -133 -25 -55 -128 -125 vvcurveto
            return
          </CharString>
          <CharString index="80">
            -142 -87 -123 -141 -151 73 -98 138 hvcurveto
            return
          </CharString>
          <CharString index="81">
            -138 0 44 560 44 hstem
            141 87 vstem
            return
          </CharString>
          <CharString index="82">
            -27 -32 callgsubr
            return
          </CharString>
          <CharString index="83">
            -117 -40 81 91 return
          </CharString>
          <CharString index="84">
            -97 callsubr
            hintmask 10111010
            return
          </CharString>
          <CharString index="85">
            5 callgsubr
            hstemhm
            -9 626 -168 168 hintmask 11111000
            return
          </CharString>
          <CharString index="86">
            105 -11 56 555 60 hstemhm
            45 101 358 49 -45 49 hintmask 11101000
            return
          </CharString>
          <CharString index="87">
            152 81 120 152 39 -5 35 -10 31 hvcurveto
            return
          </CharString>
          <CharString index="88">
            19 41 -56 callsubr
            return
          </CharString>
          <CharString index="89">
            hstemhm
            138 86 return
          </CharString>
          <CharString index="90">
            rmoveto
            -84 -158 25 -16 93 104 rlineto
            15 19 33 34 17 vvcurveto
            13 -25 29 -14 16 vhcurveto
            -102 114 -25 -16 rlineto
            return
          </CharString>
          <CharString index="91">
            58 397 58 return
          </CharString>
          <CharString index="92">
            -76 230 21 callgsubr
          </CharString>
          <CharString index="93">
            21 -211 rlineto
            40 hlineto
            23 151 2 13 1 12 1 10 rlinecurve
            15 -2 23 -33 -14 -18 -4 -9 -21 vhcurveto
            return
          </CharString>
          <CharString index="94">
            438 16 -21 612 41 hstemhm
            0 165 -165 945 -605 178 296 131 hintmask 11010000
            return
          </CharString>
          <CharString index="95">
            30 -166 51 156 65 398 -20 return
          </CharString>
          <CharString index="96">
            rmoveto
            19 -23 67 29 117 -20 rlineto
            -7 30 46 -5 31 hhcurveto
            20 20 8 18 14 hvcurveto
            32 41 -18 25 -67 -31 -119 21 rlineto
            5 -29 -54 7 -23 hhcurveto
            -23 -18 -10 -17 -14 hvcurveto
            return
          </CharString>
          <CharString index="97">
            15 -50 139 20 rlineto
            38 vlineto
            -71 16 rlineto
            return
          </CharString>
          <CharString index="98">
            -49 callgsubr
            -82 15 rlineto
            return
          </CharString>
          <CharString index="99">
            -60 callgsubr
            -247 -78 -102 callgsubr
            return
          </CharString>
          <CharString index="100">
            -61 callgsubr
            91 116 hstemhm
            90 82 -66 106 105 106 -45 83 hintmask 10111001
            return
          </CharString>
          <CharString index="101">
            733 rmoveto
            -61 36 -23 51 50 45 27 64 60 -39 23 -50 -51 -42 -29 -61 vhcurveto
            92 -41 rmoveto
            -39 -5 16 29 31 11 12 33 37 5 -17 -28 -31 -10 -12 -32 hvcurveto
            return
          </CharString>
          <CharString index="102">
            189 -13 57 556 60 hstemhm
            45 101 404 101 12 66 return
          </CharString>
          <CharString index="103">
            0 14 callsubr
            hstemhm
            99 82 return
          </CharString>
          <CharString index="104">
            -137 -28 -31 callgsubr
            82 -14 rlineto
            return
          </CharString>
          <CharString index="105">
            755 0 51 -51 59 -59 163 322 163 -59 59 15 callsubr
            80 68 callgsubr
            hintmask 0100101100000000
            return
          </CharString>
          <CharString index="106">
            65 -35 callgsubr
            44 4 callgsubr
            3 117 53 42 25 49 -40 49 hintmask 0101010101010000
            return
          </CharString>
          <CharString index="107">
            -18 30 rlineto
            -11 -19 -22 -10 -16 hhcurveto
            -28 -15 14 30 50 78 49 0 hvcurveto
            -40 hlineto
            -47 -22 -57 -44 -63 -40 callgsubr
            endchar
          </CharString>
          <CharString index="108">
            rmoveto
            -36 -25 -31 -35 -37 22 -25 34 39 22 32 36 37 -22 23 -34 hvcurveto
            endchar
          </CharString>
          <CharString index="109">
            219 16 -21 443 56 -45 45 hstemhm
            -17 218 351 184 hintmask 10111000
            return
          </CharString>
          <CharString index="110">
            -41 255 41 vlineto
            -104 16 rlineto
            380 114 vlineto
            13 26 rlineto
            31 -127 return
          </CharString>
          <CharString index="111">
            -487 -702 52 -33 484 703 rlineto
            return
          </CharString>
          <CharString index="112">
            229 -9 70 -68 62 164 49.5 -40.5 53 153 70 -67 67 hstemhm
            45 88 180 88 215 83 return
          </CharString>
          <CharString index="113">
            rmoveto
            -9 callsubr
            return
          </CharString>
          <CharString index="114">
            -44 252 35 callsubr
            return
          </CharString>
          <CharString index="115">
            30 8 31 26 40 vvcurveto
            53 -43 33 -80 -53 -45 -20 -8 -14 vhcurveto
            3 -84 rlineto
            41 hlineto
            8 54 rlineto
            0 23 10 32 33 32 -9 -36 return
          </CharString>
          <CharString index="116">
            rmoveto
            18 18 79 89 68 vvcurveto
            35 -21 28 -36 -32 -21 -22 -28 -13 vhcurveto
            16 -12 16 -23 -27 vvcurveto
            -27 -16 -43 -24 -42 vhcurveto
            endchar
          </CharString>
          <CharString index="117">
            35 20 30 32 34 -20 21 -31 -33 -23 -28 -32 -34 20 -23 32 hvcurveto
            return
          </CharString>
          <CharString index="118">
            -165 74 -53 -21 165 return
          </CharString>
          <CharString index="119">
            -157 -167 862 hstem
            -27 425 vstem
            338 695 rmoveto
            -365 -835 62 -27 363 835 rlineto
            endchar
          </CharString>
          <CharString index="120">
            -14 callgsubr
            endchar
          </CharString>
          <CharString index="121">
            41 377 86 -6 -20 26 -20 return
          </CharString>
          <CharString index="122">
            -43 43 -18 callsubr
            333 101 return
          </CharString>
          <CharString index="123">
            465 -9 70 -61 52 -35 -21 445 53 -53 63 hstemhm
            40 89 234 82 112 114 160 96 return
          </CharString>
          <CharString index="124">
            565 rmoveto
            -109 121 rlineto
            18 -16 -12 13 -14 hhcurveto
            -17 -22 -21 -41 -12 hvcurveto
            174 -120 rlineto
            return
          </CharString>
          <CharString index="125">
            -194 237 68.5 hstem
            41 215 vstem
            41 297 rmoveto
            -60 215 77 vlineto
            endchar
          </CharString>
          <CharString index="126">
            -4 callsubr
            hintmask 10011000
            return
          </CharString>
          <CharString index="127">
            -1 191 rmoveto
            -159 vlineto
            0 -39 -18 -50 -60 -32 35 41 64 57 28 124 9 vhcurveto
            endchar
          </CharString>
          <CharString index="128">
            41 rmoveto
            -52 callgsubr
            -78 14 rlineto
            return
          </CharString>
          <CharString index="129">
            15 rlineto
            530 return
          </CharString>
          <CharString index="130">
            -94 -9 55 401 57 hstem
            33 77 185 78 vstem
            return
          </CharString>
          <CharString index="131">
            -27 -7 35 callgsubr
            return
          </CharString>
          <CharString index="132">
            hstemhm
            -22 219 93 185 return
          </CharString>
          <CharString index="133">
            -71 -76 -42 -7 -13 return
          </CharString>
          <CharString index="134">
            655 rmoveto
            41 -12 -22 21 -17 hhcurveto
            -14 -12 -13 -18 -16 hvcurveto
            -109 -121 28 -30 rlineto
            return
          </CharString>
          <CharString index="135">
            0 41 201 53 159 40 hstemhm
            return
          </CharString>
          <CharString index="136">
            189 -13 57 556 60 125 54 hstemhm
            45 101 168 56 17 68 95 101 return
          </CharString>
          <CharString index="137">
            50 -35 callgsubr
            35 65 -38 -21 507 -20 hstemhm
            90 82 48 117 41 83 return
          </CharString>
          <CharString index="138">
            rmoveto
            -4 -81 rlineto
            -12 23 49 -12 38 hhcurveto
            75 66 35 74 57 -44 19 -30 7 hvcurveto
            return
          </CharString>
          <CharString index="139">
            98 64 31 57 38 vvcurveto
            endchar
          </CharString>
          <CharString index="140">
            -10 -35 callgsubr
            35 -16 callsubr
            hstem
            25 90 75 117 72 90 vstem
            return
          </CharString>
          <CharString index="141">
            -82 -15 rlineto
            -9 callsubr
            return
          </CharString>
          <CharString index="142">
            44 vlineto
            -83 15 rlineto
            return
          </CharString>
          <CharString index="143">
            -10 -29 callsubr
            166 54 hstemhm
            25 90 100 56 17 68 23 90 return
          </CharString>
          <CharString index="144">
            -60 -12 rlineto
            -47 61 -382 vlineto
            return
          </CharString>
          <CharString index="145">
            rmoveto
            -37 271 103 -39 vlineto
            -11 -54 rlineto
            -132 4 hlineto
            53 45 rlineto
            return
          </CharString>
          <CharString index="146">
            145 22 callgsubr
            531 143 vlineto
            return
          </CharString>
          <CharString index="147">
            -68 -9 70 385 58 hstem
            25 88 vstem
            return
          </CharString>
          <CharString index="148">
            -23 -16 5 6 -15 return
          </CharString>
          <CharString index="149">
            44 -34 10 -38 9 return
          </CharString>
          <CharString index="150">
            -146 -156 855 hstem
            150 60 vstem
            150 699 rmoveto
            return
          </CharString>
          <CharString index="151">
            286 0 57 -57 164 107 57 156 164 -55 55 hstemhm
            return
          </CharString>
          <CharString index="152">
            11 callsubr
            52 callsubr
            return
          </CharString>
          <CharString index="153">
            -20 -2 callgsubr
            return
          </CharString>
          <CharString index="154">
            vlineto
            -88 54 -50 93 return
          </CharString>
          <CharString index="155">
            -223 324 78 -170 vvcurveto
            -87 -41 -27 -98 vhcurveto
            return
          </CharString>
          <CharString index="156">
            670 rmoveto
            68 callsubr
            return
          </CharString>
          <CharString index="157">
            hlineto
            27 142 rlineto
            -60 hlineto
            -27 -142 rlineto
            -134 return
          </CharString>
          <CharString index="158">
            rmoveto
            -50 callsubr
            return
          </CharString>
          <CharString index="159">
            41 453 -20 94 128 hstemhm
            return
          </CharString>
          <CharString index="160">
            -44 vlineto
            95 -17 rlineto
            return
          </CharString>
          <CharString index="161">
            vlineto
            hintmask 01110101
            178 -49 vlineto
            hintmask 10111000
            -22 -107 rlineto
            return
          </CharString>
          <CharString index="162">
            -46 -166 52 299 58 199 73 -69 58 return
          </CharString>
          <CharString index="163">
            vlineto
            34 callsubr
            return
          </CharString>
          <CharString index="164">
            192 -123 162 return
          </CharString>
          <CharString index="165">
            hstemhm
            125 60 return
          </CharString>
          <CharString index="166">
            49 -26 49 hintmask 10110100
            38 43 rmoveto
            hintmask 10111001
            -43 return
          </CharString>
          <CharString index="167">
            -20 14 callgsubr
            hintmask 11110110
            return
          </CharString>
          <CharString index="168">
            55 42 rmoveto
            -42 200 42 vlineto
            -70 16 rlineto
            return
          </CharString>
          <CharString index="169">
            52 callsubr
            83 117 return
          </CharString>
          <CharString index="170">
            51 68.5 50.5 return
          </CharString>
          <CharString index="171">
            622 rmoveto
            -51 29 -36 61 return
          </CharString>
          <CharString index="172">
            51 217 34 vstem
            return
          </CharString>
          <CharString index="173">
            hstemhm
            127 87 return
          </CharString>
          <CharString index="174">
            676 162 hstem
            -356 356 vstem
            return
          </CharString>
          <CharString index="175">
            35 14 -9 -17 -15 -10 -8 -25 -13 hvcurveto
            return
          </CharString>
          <CharString index="176">
            678 156 hstem
            -306 306 vstem
            return
          </CharString>
          <CharString index="177">
            120 -40 49 return
          </CharString>
        <CharString name=".notdef">
          -324 endchar
        </CharString>
        <CharString name="A">
          -63 callsubr
          hstemhm
          -9 135 323 168 hintmask 00000000
          hintmask 11111000
          -9 41 -70 callsubr
          -104 callsubr
          endchar
        </CharString>
        <CharString name="AE">
          44 callsubr
          -9 137 506 42 -13 49 12 49 hintmask 1010111010000000
          -9 41 13 callgsubr
          hintmask 0110111010000000
          164 -49 vlineto
          hintmask 1010111010000000
          0 callgsubr
          hintmask 1010110110000000
          94 hlineto
          hintmask 1011010110000000
          21 -109 rlineto
          49 hlineto
          hintmask 1010110110000000
          19 callgsubr
        </CharString>
        <CharString name="AEacute">
          44 callsubr
          634 42 -13 49 12 49 hintmask 10101101
          376 716 -98 callgsubr
          -516 -773 13 callgsubr
          hintmask 01101101
          164 -49 vlineto
          hintmask 10101101
          0 callgsubr
          hintmask 10101011
          94 hlineto
          hintmask 10110011
          21 -109 rlineto
          49 hlineto
          hintmask 10101011
          19 callgsubr
        </CharString>
        <CharString name="Aacute">
          -65 callsubr
          209 716 -98 callgsubr
          -349 -773 -70 callsubr
          hintmask 11101000
          -104 callsubr
          endchar
        </CharString>
        <CharString name="Abreve">
          -22 callsubr
          229 821 -95 callgsubr
          -238 -780 -70 callsubr
          hintmask 11110100
          -104 callsubr
          endchar
        </CharString>
        <CharString name="Acircumflex">
          -65 callsubr
          142 716 -102 callgsubr
          -230 -739 -70 callsubr
          hintmask 11101000
          -104 callsubr
          endchar
        </CharString>
        <CharString name="Adieresis">
          -63 callsubr
          53 116 hstemhm
          140 106 105 106 -8 168 hintmask 11111100
          191 686 -104 callgsubr
          -411 -645 -70 callsubr
          hintmask 11111010
          -104 callsubr
          endchar
        </CharString>
        <CharString name="Agrave">
          -65 callsubr
          164 767 -87 callgsubr
          -173 -726 -70 callsubr
          hintmask 11101000
          -104 callsubr
          endchar
        </CharString>
        <CharString name="Amacron">
          -63 callsubr
          90 58 hstemhm
          -9 626 -168 168 hintmask 11111000
          138 -25 callgsubr
          -479 -740 -70 callsubr
          hintmask 11110100
          -104 callsubr
          endchar
        </CharString>
        <CharString name="Aogonek">
          101 -187 60 127 41 145 57 410 -20 hstem
          -9 135 176 66 81 168 vstem
          -9 41 -70 callsubr
          -84 callgsubr
          vlineto
          -39 -24 -37 -38 -51 -59 callgsubr
          34 33 31 23 18 hvcurveto
          193 41 hlineto
          -64 16 -230 596 rlineto
          -48 hlineto
          -221 -596 rlineto
          331 186 rmoveto
          -200 hlineto
          97 273 rlineto
          endchar
        </CharString>
        <CharString name="Aring">
          101 0 41 145 57 405 42 -40 -20 148 43 hstemhm
          -9 135 82 48 86 48 59 168 hintmask 1101111110000000
          -9 41 -70 callsubr
          -76 callgsubr
          -64 16 -229 593 rlineto
          37 9 29 28 51 vvcurveto
          60 -39 23 -50 -51 -42 -29 -61 vhcurveto
          hintmask 1110111110000000
          -52 26 -25 39 -6 vhcurveto
          -219 -591 rlineto
          246 633 rmoveto
          -39 -5 16 29 31 11 12 33 37 5 -17 -28 -31 -10 -12 -32 hvcurveto
          85 -447 rmoveto
          -200 hlineto
          97 273 rlineto
          endchar
        </CharString>
        <CharString name="Aringacute">
          101 0 41 145 57 408 -20 149 43 hstem
          -9 135 87 48 86 48 54 168 vstem
          463 942 3 callgsubr
          283 -799 rmoveto
          -229 594 rlineto
          39 8 32 27 54 vvcurveto
          60 -39 23 -50 -51 -42 -29 -61 -50 24 -25 37 -7 vhcurveto
          -220 -594 -63 -16 rlineto
          -76 callsubr
          -76 callgsubr
          -356 696 rmoveto
          31 11 12 33 37 5 -17 -28 -31 -10 -12 -32 -39 -5 16 29 vhcurveto
          -76 -494 rmoveto
          97 273 103 -273 rlineto
          endchar
        </CharString>
        <CharString name="Atilde">
          -65 callsubr
          124 728 -101 callsubr
          -170 -736 -70 callsubr
          hintmask 11101000
          -104 callsubr
          endchar
        </CharString>
        <CharString name="B">
          93 0 55 247 55 233 58 -43 43 hstemhm
          142 86 206 91 -65 99 hintmask 11101010
          59 43 rmoveto
          -43 277 vlineto
          118 105 48 130 107 -93 49 -56 11 hvcurveto
          hintmask 11101100
          59 21 56 33 93 vvcurveto
          107 -93 49 -111 vhcurveto
          -262 60 callgsubr
          137 297 rmoveto
          -51 hlineto
          hintmask 11101100
          228 vlineto
          0 35 5 38 48 85 -2 -97 vhcurveto
          hintmask 11011100
          -92 -60 -42 -95 vhcurveto
          -51 -296 rmoveto
          241 68 vlineto
          hintmask 11101010
          97 67 -21 -100 -94 -63 -32 -77 hvcurveto
          hintmask 11011100
          -55 -37 6 0 hvcurveto
          endchar
        </CharString>
        <CharString name="C">
          -21 callsubr
          508 184 -86 callgsubr
        </CharString>
        <CharString name="Cacute">
          -21 callsubr
          280 716 -98 callgsubr
          97 -630 -86 callgsubr
        </CharString>
        <CharString name="Cacute.loclPLK">
          -21 callsubr
          329 -42 callsubr
          108 -638 -86 callgsubr
        </CharString>
        <CharString name="Ccaron">
          -21 callsubr
          224 -92 callgsubr
          162 -585 -86 callgsubr
        </CharString>
        <CharString name="Ccedilla">
          105 -187 42 134 56 -55 55 555 60 hstemhm
          45 101 240 68 50 49 -45 49 hintmask 10111100
          273 -34 callsubr
          60 63 21 70 hvcurveto
          hintmask 11011101
          42 callsubr
          vhcurveto
          -17 4 rlineto
          18 vlineto
          103 4 53 23 36 16 rrcurveto
          152 -49 vlineto
          hintmask 10111110
          -20 -102 rlineto
          0 -38 -37 -98 -132 -74 111 163 197 56 84 146 79 56 -16 0 vhcurveto
          21 -110 rlineto
          49 157 hlineto
          18 -45 -65 11 -88 hhcurveto
          -191 -119 -162 -182 -205 87 -114 187 -7 hvcurveto
          -20 -49 -46 callgsubr
          vhcurveto
          hintmask 10111100
          41 callsubr
          hvcurveto
          endchar
        </CharString>
        <CharString name="Ccircumflex">
          -21 callsubr
          202 716 -102 callgsubr
          227 -596 -86 callgsubr
        </CharString>
        <CharString name="Cdotaccent">
          105 -11 56 555 60 34 128 hstemhm
          45 101 150 117 91 49 -45 49 hintmask 11111010
          352 -36 callsubr
          156 -510 rmoveto
          -20 -102 rlineto
          0 -38 -37 -98 -132 -74 111 163 197 56 84 146 vhcurveto
          hintmask 11111100
          79 56 -16 0 hvcurveto
          21 -110 rlineto
          49 157 hlineto
          18 -45 -65 11 -88 hhcurveto
          -191 -119 -162 -182 -212 94 -115 201 hvcurveto
          hintmask 11111010
          120 58 26 17 39 hvcurveto
          152 vlineto
          endchar
        </CharString>
        <CharString name="D">
          196 0 51 539 58 15 callsubr
          hintmask 11011000
          18 callgsubr
          hintmask 10111000
          7 callgsubr
          86 2 rmoveto
          hintmask 11011000
          -52 callsubr
          vhcurveto
          hintmask 10111000
          -65 -30 11 0 hvcurveto
          endchar
        </CharString>
        <CharString name="Dcaron">
          200 0 51 539 58 -43 43 hstemhm
          142 86 333 101 hintmask 11011000
          219 -92 callgsubr
          -282 -726 -60 callsubr
          hintmask 10111000
          7 callgsubr
          86 2 rmoveto
          hintmask 11011000
          -52 callsubr
          vhcurveto
          hintmask 10111000
          -65 -30 11 0 hvcurveto
          endchar
        </CharString>
        <CharString name="Dcroat">
          200 -51 callsubr
        </CharString>
        <CharString name="E">
          -84 callsubr
          55 43 -103 callsubr
        </CharString>
        <CharString name="Eacute">
          -84 callsubr
          211 716 -98 callgsubr
          -287 -771 -103 callsubr
        </CharString>
        <CharString name="Ebreve">
          -80 callgsubr
          44 61 -18 callsubr
          173 42 25 49 -40 49 hintmask 1010101110100000
          240 821 -95 callgsubr
          -185 -778 -72 callgsubr
        </CharString>
        <CharString name="Ecaron">
          -84 callsubr
          184 -92 callgsubr
          -251 -726 -103 callsubr
        </CharString>
        <CharString name="Ecircumflex">
          -84 callsubr
          149 716 -102 callgsubr
          -173 -737 -103 callsubr
        </CharString>
        <CharString name="Edieresis">
          -80 callgsubr
          45 116 -18 callsubr
          -71 106 105 106 -73 42 25 49 -40 49 hintmask 0000000000000000
          hintmask 1010101011000000
          204 693 -104 callgsubr
          -360 -650 rmoveto
          -43 vlineto
          hintmask 1010100100101000
          467 hlineto
          hintmask 0110100100101000
          164 -49 vlineto
          hintmask 1010100100101000
          -22 -100 callgsubr
          hintmask 1010100100110000
          121 hlineto
          hintmask 1011000100110000
          21 -109 rlineto
          49 hlineto
          hintmask 1010100100110000
          164 -458 vlineto
          hintmask 1010010100101000
          -69 callgsubr
        </CharString>
        <CharString name="Edotaccent">
          -80 callgsubr
          46 128 -18 callsubr
          30 117 26 42 25 49 -40 49 hintmask 0000000000000000
          hintmask 1010101111010000
          310 -36 callsubr
          -255 -651 rmoveto
          -43 467 vlineto
          hintmask 0110100101010000
          164 -49 vlineto
          hintmask 1010100101010000
          -22 -100 callgsubr
          hintmask 1010100101100000
          121 hlineto
          hintmask 1011000101100000
          21 -109 rlineto
          49 hlineto
          hintmask 1010100101100000
          164 -458 vlineto
          hintmask 1010010101010000
          -69 callgsubr
        </CharString>
        <CharString name="Egrave">
          -84 callsubr
          194 767 -87 callgsubr
          -139 -724 -103 callsubr
        </CharString>
        <CharString name="Emacron">
          -80 callgsubr
          75 58 -18 callsubr
          173 42 25 49 -40 49 hintmask 1010101110100000
          145 -25 callgsubr
          -422 -738 -72 callgsubr
        </CharString>
        <CharString name="Eng">
          220 -165 71 -50 -21 165 42 474 132 -58 58 -42 42 58 callsubr
          365 61 hintmask 01100111
          481 648 rmoveto
          -42 vlineto
          hintmask 01101011
          -16 callgsubr
          hintmask 01100111
          -33 callsubr
          hintmask 01101011
          65 -14 rlineto
          -532 vlineto
          -70 -16 rlineto
          -42 200 42 vlineto
          -70 16 rlineto
          hintmask 10110011
          458 9 vlineto
          324 -514 rlineto
          -96 vlineto
          -97 -23 -31 callgsubr
          0 35 -10 48 70 37 30 52 vhcurveto
          83 vlineto
          hintmask 01101011
          590 vlineto
          hintmask 01100111
          69 16 rlineto
          42 vlineto
          endchar
        </CharString>
        <CharString name="Eogonek">
          65 -187 60 127 4 callgsubr
          173 42 -30 66 -11 49 hintmask 0101010110000000
          55 43 rmoveto
          -43 vlineto
          hintmask 1101010101000000
          406 hlineto
          -26 -29 -26 -40 -44 -40 callgsubr
          -18 30 rlineto
          -11 -19 -19 -10 -19 hhcurveto
          -28 -15 14 30 50 47 49 0 hvcurveto
          hintmask 0011010110000000
          13 148 rlineto
          -49 hlineto
          hintmask 0101010110000000
          -35 -100 callgsubr
          hintmask 0101010110100000
          121 hlineto
          hintmask 0101100110100000
          21 -109 rlineto
          49 hlineto
          hintmask 0101010110100000
          164 -458 vlineto
          hintmask 0101001110000000
          -69 callgsubr
        </CharString>
        <CharString name="Eth">
          205 -51 callsubr
        </CharString>
        <CharString name="Euro">
          13 -11 56 211 57 48 57 182 60 hstemhm
          67 103 264 49 -45 49 hintmask 11111100
          367 418 rmoveto
          -200 hlineto
          121 17 54 61 91 hhcurveto
          31 36 -7 -9 19 hvcurveto
          19 -110 rlineto
          49 157 hlineto
          20 -39 -62 9 -43 hhcurveto
          -138 -95 -95 -147 -33 hvcurveto
          -48 hlineto
          -20 -57 rlineto
          342 hlineto
          hintmask 11111010
          91 -177 rmoveto
          -19 -102 rlineto
          -23 -24 -40 -14 -36 hhcurveto
          -86 -50 82 129 -13 hvcurveto
          140 hlineto
          20 57 rlineto
          -315 hlineto
          -20 -57 rlineto
          72 hlineto
          -148 12 75 -119 158 hhcurveto
          62 68 18 25 45 hvcurveto
          152 vlineto
          endchar
        </CharString>
        <CharString name="Euro.osf">
          -27 -9 59 123 57 48 57 135 61 -31 -20 hstemhm
          415 45 -41 45 hintmask 11101100
          33 335 rmoveto
          -20 -57 rlineto
          324 hlineto
          20 57 rlineto
          -212 hlineto
          hintmask 11110100
          77 8 36 58 113 hhcurveto
          55 39 -14 0 54 callgsubr
          45 hlineto
          hintmask 11101100
          138 vlineto
          hintmask 11110100
          17 -41 -41 14 -80 hhcurveto
          -145 -70 -91 -105 -23 hvcurveto
          -55 -105 rmoveto
          -20 -57 rlineto
          73 hlineto
          -133 19 75 -49 132 hhcurveto
          hintmask 11101010
          110 34 24 15 36 hvcurveto
          136 -45 vlineto
          -18 -93 rlineto
          0 -36 -23 -70 -84 -50 38 85 -12 vhcurveto
          151 hlineto
          20 57 rlineto
          endchar
        </CharString>
        <CharString name="F">
          10 0 43 242 53 146 164 -55 55 -43 43 -18 callsubr
          181 42 20 50 hintmask 11010110
          55 43 rmoveto
          -43 283 49 vlineto
          -114 14 rlineto
          222 167 vlineto
          14 -59 rlineto
          42 172 -42 hlineto
          -14 -60 rlineto
          -167 249 hlineto
          98 6 rlineto
          hintmask 11010111
          124 hlineto
          hintmask 11100111
          21 -109 rlineto
          50 hlineto
          hintmask 11010111
          164 -462 vlineto
          hintmask 11001110
          -69 callgsubr
        </CharString>
        <CharString name="G">
          -42 callgsubr
          482 27 -91 callgsubr
        </CharString>
        <CharString name="G_tilde.loclGUA">
          -42 callgsubr
          170 728 -101 callsubr
          275 -750 -91 callgsubr
        </CharString>
        <CharString name="Gbreve">
          138 -11 56 -24 -21 278 43 280 59 32 61 hstemhm
          45 101 339 84 -59 48 hintmask 10111110
          262 821 -95 callgsubr
          220 -794 rmoveto
          hintmask 01111110
          14 hlineto
          32 -27 rlineto
          41 263 hlineto
          41 8 rlineto
          50 -197 -43 vlineto
          72 -18 rlineto
          hintmask 10111110
          -183 vlineto
          -20 -38 -28 -12 -65 hhcurveto
          -153 -55 99 182 179 50 96 150 hvcurveto
          hintmask 10111101
          86 49 -17 0 hvcurveto
          29 -110 rlineto
          48 156 hlineto
          12 -20 -73 18 -106 hhcurveto
          -200 -114 -162 -182 -229 102 -98 182 hvcurveto
          hintmask 10111110
          87 42 22 16 24 hvcurveto
          endchar
        </CharString>
        <CharString name="Gcaron">
          -42 callgsubr
          225 -92 callgsubr
          135 -742 -91 callgsubr
        </CharString>
        <CharString name="Gcircumflex">
          -42 callgsubr
          192 716 -102 callgsubr
          211 -753 -91 callgsubr
        </CharString>
        <CharString name="Gcommaaccent">
          138 -11 56 -24 -21 278 43 280 59 hstemhm
          45 101 196 67 76 84 -59 48 hintmask 10011010
          482 27 rmoveto
          hintmask 01111010
          14 hlineto
          32 -27 rlineto
          41 263 hlineto
          41 8 rlineto
          50 -197 -43 vlineto
          72 -18 rlineto
          hintmask 10011010
          -183 vlineto
          -20 -38 -28 -12 -65 hhcurveto
          -153 -55 99 182 179 50 96 150 hvcurveto
          hintmask 10011001
          86 49 -17 0 hvcurveto
          29 -110 rlineto
          48 156 hlineto
          12 -20 -73 18 -106 hhcurveto
          -200 -114 -162 -182 -229 102 -98 182 hvcurveto
          hintmask 10011010
          87 42 22 16 24 hvcurveto
          hintmask 10011110
          -157 -214 rmoveto
          -93 callsubr
        </CharString>
        <CharString name="Gdotaccent">
          138 -11 56 -24 -21 278 43 280 59 34 128 hstemhm
          45 101 140 117 82 84 -59 48 hintmask 1001111100000000
          342 -36 callsubr
          140 -667 rmoveto
          hintmask 0111111100000000
          14 hlineto
          32 -27 rlineto
          41 263 hlineto
          41 8 rlineto
          50 -197 -43 vlineto
          72 -18 rlineto
          hintmask 1001111100000000
          -183 vlineto
          -20 -38 -28 -12 -65 hhcurveto
          -153 -55 99 182 179 50 96 150 hvcurveto
          hintmask 1001111010000000
          86 49 -17 0 hvcurveto
          29 -110 rlineto
          48 156 hlineto
          12 -20 -73 18 -106 hhcurveto
          -200 -114 -162 -182 -229 102 -98 182 hvcurveto
          hintmask 1001111100000000
          87 42 22 16 24 hvcurveto
          endchar
        </CharString>
        <CharString name="H">
          246 0 34 callgsubr
          305 87 vstem
          55 44 -57 callsubr
          endchar
        </CharString>
        <CharString name="Hbar">
          246 0 44 241 55 99 55 110 44 hstem
          138 86 305 87 vstem
          698 604 rmoveto
          44 -251 -44 vlineto
          82 -15 rlineto
          -95 -305 95 vlineto
          83 15 rlineto
          44 -252 -44 vlineto
          83 -15 rlineto
          -95 -78 -55 78 -380 vlineto
          -83 -15 rlineto
          7 callsubr
          226 305 -226 56 callsubr
          380 82 55 -82 95 vlineto
          -87 -249 rmoveto
          -305 99 305 hlineto
          endchar
        </CharString>
        <CharString name="Hcircumflex">
          246 0 34 callgsubr
          305 87 vstem
          224 716 -102 callgsubr
          -248 -736 -57 callsubr
          endchar
        </CharString>
        <CharString name="I">
          -26 callsubr
          59 44 rmoveto
          -88 callgsubr
          -530 vlineto
          endchar
        </CharString>
        <CharString name="IJ">
          20 callgsubr
          59 44 rmoveto
          -88 callgsubr
          -530 vlineto
          hintmask 00111110
          238 98 rmoveto
          hintmask 10011110
          -74 callgsubr
          hintmask 00111110
          -29 110 rlineto
          endchar
        </CharString>
        <CharString name="Iacute">
          -26 callsubr
          84 716 -98 callgsubr
          -156 -770 rmoveto
          -88 callgsubr
          -530 vlineto
          endchar
        </CharString>
        <CharString name="Iacute_J.loclNLD">
          20 callgsubr
          127 716 -98 callgsubr
          292 -98 -98 callgsubr
          -622 -770 rmoveto
          -88 callgsubr
          -530 vlineto
          hintmask 00111110
          238 98 rmoveto
          hintmask 10011110
          -74 callgsubr
          hintmask 00111110
          -29 110 rlineto
          endchar
        </CharString>
        <CharString name="Ibreve">
          -138 0 44 560 44 44 61 hstem
          141 87 vstem
          105 821 -95 callgsubr
          -46 -777 rmoveto
          -88 callgsubr
          -530 vlineto
          endchar
        </CharString>
        <CharString name="Icircumflex">
          -26 callsubr
          27 716 -102 callgsubr
          -47 -736 rmoveto
          -88 callgsubr
          -530 vlineto
          endchar
        </CharString>
        <CharString name="Idieresis">
          -138 0 44 560 44 45 116 hstemhm
          26 106 9 87 9 106 hintmask 00000000
          hintmask 11111100
          77 693 -104 callgsubr
          -229 -649 rmoveto
          -44 vlineto
          hintmask 11101000
          251 44 hlineto
          -5 callgsubr
        </CharString>
        <CharString name="Idotaccent">
          -138 0 44 560 44 46 128 hstemhm
          126 117 -102 87 hintmask 00000000
          hintmask 11110000
          182 -36 callsubr
          -123 -650 rmoveto
          -44 vlineto
          hintmask 11001000
          251 44 hlineto
          -5 callgsubr
        </CharString>
        <CharString name="Igrave">
          -26 callsubr
          75 767 -87 callgsubr
          -16 -723 rmoveto
          -88 callgsubr
          -530 vlineto
          endchar
        </CharString>
        <CharString name="Imacron">
          -138 0 44 560 44 75 58 hstem
          141 87 vstem
          43 781 rmoveto
          -10 -58 rlineto
          292 hlineto
          10 58 rlineto
          -276 -737 rmoveto
          -88 callgsubr
          -530 vlineto
          endchar
        </CharString>
        <CharString name="Iogonek">
          -138 -187 60 127 44 -44 59 545 44 hstemhm
          141 87 -71 66 hintmask 00000000
          hintmask 11010100
          59 44 rmoveto
          -44 173 vlineto
          -39 -24 -36 -38 -51 -59 callgsubr
          34 33 31 23 18 hvcurveto
          hintmask 11011000
          31 44 hlineto
          hintmask 10111000
          -5 callgsubr
        </CharString>
        <CharString name="Itilde">
          -26 callsubr
          10 728 -101 callsubr
          12 -733 rmoveto
          -88 callgsubr
          -530 vlineto
          endchar
        </CharString>
        <CharString name="J">
          50 callgsubr
          10 157 rmoveto
          -74 callgsubr
          -29 110 rlineto
          endchar
        </CharString>
        <CharString name="Jcircumflex">
          50 callgsubr
          86 716 -102 callgsubr
          -155 -623 rmoveto
          -74 callgsubr
          -29 110 rlineto
          endchar
        </CharString>
        <CharString name="K">
          46 callgsubr
          157 204 hintmask 11011100
          -13 callgsubr
          hintmask 11101100
          9 callgsubr
          endchar
        </CharString>
        <CharString name="Kcommaaccent">
          46 callgsubr
          101 67 -11 204 hintmask 11011010
          -13 callgsubr
          hintmask 11101010
          9 callgsubr
          170 -246 rmoveto
          -93 callsubr
        </CharString>
        <CharString name="L">
          -8 callgsubr
          523 vlineto
          91 15 rlineto
          47 -260 -43 vlineto
          83 -17 rlineto
          -528 vlineto
          endchar
        </CharString>
        <CharString name="Lacute">
          16 0 55 -55 162 443 43 -18 callsubr
          233 49 hintmask 10111000
          130 716 -98 callgsubr
          -206 -771 rmoveto
          -43 451 vlineto
          hintmask 01111000
          162 -49 vlineto
          hintmask 10111000
          13 callsubr
        </CharString>
        <CharString name="Lcaron">
          20 0 55 -55 162 319 167 -43 43 10 -20 hstemhm
          142 86 171 70 -8 49 hintmask 00000000
          hintmask 10100110
          383 481 rmoveto
          32 hlineto
          0 54 78 45 vvcurveto
          hintmask 10001110
          29 -15 25 -35 -24 -14 -13 -10 -7 vhcurveto
          hintmask 10100110
          14 -17 11 -18 -24 vvcurveto
          -28 -6 -38 -10 -29 vhcurveto
          hintmask 10010101
          -324 -438 rmoveto
          -43 451 vlineto
          hintmask 01010101
          162 -49 vlineto
          hintmask 10010100
          13 callsubr
        </CharString>
        <CharString name="Lcommaaccent">
          20 0 55 -55 162 443 43 hstemhm
          142 86 51 67 115 49 hintmask 10110100
          59 43 rmoveto
          -43 451 vlineto
          hintmask 01110100
          162 -49 vlineto
          hintmask 10111100
          -14 callgsubr
          120 -247 rmoveto
          -93 callsubr
        </CharString>
        <CharString name="Ldot">
          16 0 55 -55 162 133 130 180 43 -18 callsubr
          93 119 21 49 hintmask 10111010
          55 43 rmoveto
          -43 451 vlineto
          hintmask 01111010
          162 -49 vlineto
          hintmask 10111110
          -14 callgsubr
          236 235 rmoveto
          -63 callgsubr
          endchar
        </CharString>
        <CharString name="Lslash">
          -8 callgsubr
          238 vlineto
          135 48 rlineto
          63 vlineto
          -135 -50 rlineto
          224 vlineto
          91 15 rlineto
          47 -260 -43 vlineto
          83 -17 rlineto
          -257 vlineto
          -69 -25 rlineto
          -59 vlineto
          69 24 rlineto
          -211 vlineto
          endchar
        </CharString>
        <CharString name="M">
          378 0 44 537 67 -44 44 hstemhm
          128 61 467 87 hintmask 11011000
          55 42 rmoveto
          -42 207 42 vlineto
          -73 16 rlineto
          523 12 vlineto
          196 -581 rlineto
          48 hlineto
          196 581 rlineto
          15 -522 hlineto
          -82 -15 rlineto
          7 callsubr
          hintmask 10111000
          530 vlineto
          83 15 rlineto
          hintmask 11011000
          44 -222 vlineto
          -151 -458 -15 -56 -15 56 -154 458 rlineto
          -205 hlineto
          hintmask 10111000
          -44 vlineto
          64 -12 rlineto
          -534 vlineto
          endchar
        </CharString>
        <CharString name="N">
          -37 callsubr
          55 42 -82 callgsubr
        </CharString>
        <CharString name="Nacute">
          -37 callsubr
          274 716 -98 callgsubr
          -350 -772 -82 callgsubr
        </CharString>
        <CharString name="Nacute.loclPLK">
          -37 callsubr
          338 -42 callsubr
          -354 -780 -82 callgsubr
        </CharString>
        <CharString name="Ncaron">
          -37 callsubr
          247 -92 callgsubr
          -314 -727 -82 callgsubr
        </CharString>
        <CharString name="Ncommaaccent">
          220 0 42 474 132 -58 58 -42 42 58 callsubr
          169 67 129 61 hintmask 10011010
          61 callsubr
          hintmask 11001010
          458 9 vlineto
          325 -516 rlineto
          92 hlineto
          hintmask 10101010
          590 vlineto
          hintmask 10011010
          69 16 rlineto
          42 -199 -42 vlineto
          hintmask 10101010
          -16 callgsubr
          hintmask 10011010
          -33 callsubr
          hintmask 10101110
          65 -14 rlineto
          -532 vlineto
          212 -245 rmoveto
          -93 callsubr
        </CharString>
        <CharString name="Ntilde">
          -37 callsubr
          196 728 -101 callsubr
          -178 -735 -82 callgsubr
        </CharString>
        <CharString name="O">
          -62 callgsubr
          344 -13 -107 callsubr
          endchar
        </CharString>
        <CharString name="OE">
          384 0 50 -50 57 -57 164 141 53 126 164 -55 55 hstemhm
          45 101 311 86 173 42 25 49 -40 49 hintmask 0101011110100000
          770 57 rmoveto
          -120 hlineto
          -67 -40 10 0 hvcurveto
          238 158 vlineto
          15 -59 rlineto
          42 171 -42 hlineto
          -15 -59 rlineto
          -158 229 hlineto
          98 6 rlineto
          hintmask 0101011111000000
          121 hlineto
          hintmask 0101101111000000
          21 -109 rlineto
          49 hlineto
          hintmask 0101011111000000
          164 -459 vlineto
          -206 -122 -144 -191 -234 130 -79 185 hvcurveto
          hintmask 0101011110100000
          481 hlineto
          hintmask 0011011110100000
          164 -49 vlineto
          -335 414 rmoveto
          hintmask 1001011110100000
          -508 vlineto
          -16 -24 -30 -4 -29 hhcurveto
          -142 -86 75 194 249 116 26 112 hvcurveto
          hintmask 0011011110100000
          29 33 -6 -10 21 hvcurveto
          endchar
        </CharString>
        <CharString name="Oacute">
          -62 callgsubr
          250 716 -98 callgsubr
          -37 -827 -107 callsubr
          endchar
        </CharString>
        <CharString name="Oacute.loclPLK">
          -62 callgsubr
          322 -42 callsubr
          -49 -835 -107 callsubr
          endchar
        </CharString>
        <CharString name="Obreve">
          189 -13 57 556 60 32 61 hstem
          45 101 404 101 vstem
          268 821 -95 callgsubr
          76 -834 -107 callsubr
          endchar
        </CharString>
        <CharString name="Ocircumflex">
          -62 callgsubr
          197 716 -102 callgsubr
          68 -793 -107 callsubr
          endchar
        </CharString>
        <CharString name="Odieresis">
          189 -13 57 556 60 33 116 hstem
          45 101 49 106 105 106 38 101 vstem
          246 693 -104 callgsubr
          -113 -706 -107 callsubr
          endchar
        </CharString>
        <CharString name="Ograve">
          -62 callgsubr
          238 767 -87 callgsubr
          106 -780 -107 callsubr
          endchar
        </CharString>
        <CharString name="Ohorn">
          -5 callsubr
          hintmask 00000000
          hintmask 11111000
          729 654 -88 callsubr
        </CharString>
        <CharString name="Ohungarumlaut">
          -62 callgsubr
          271 806 rmoveto
          -45 callsubr
          184 hmoveto
          -45 callsubr
          -111 -819 -107 callsubr
          endchar
        </CharString>
        <CharString name="Omacron">
          199 -13 57 556 60 63 58 hstem
          50 101 404 101 vstem
          202 -25 callgsubr
          -185 -794 -107 callsubr
          endchar
        </CharString>
        <CharString name="Oslash">
          39 callgsubr
          hintmask 00000000
          hintmask 01101100
          179 27 -57 callgsubr
        </CharString>
        <CharString name="Oslashacute">
          39 callgsubr
          hintmask 10101100
          255 716 -98 callgsubr
          hintmask 01101100
          -207 -787 -57 callgsubr
        </CharString>
        <CharString name="Otilde">
          -62 callgsubr
          182 728 -101 callsubr
          125 -790 -107 callsubr
          endchar
        </CharString>
        <CharString name="P">
          58 0 43 217 41 290 57 -43 43 -18 callsubr
          231 92 hintmask 11101100
          268 301 rmoveto
          5 -39 rlineto
          -2 12 12 0 12 hhcurveto
          143 95 75 149 121 -101 43 -142 hvcurveto
          -249 60 callgsubr
          -83 -17 rlineto
          -43 280 46 vlineto
          -111 17 rlineto
          hintmask 11101100
          523 vlineto
          0 39 5 40 92 60 -37 -100 -115 -72 -38 -115 vhcurveto
          endchar
        </CharString>
        <CharString name="Q">
          195 -156 70 93 38 556 59 hstem
          45 101 404 101 vstem
          390 -43 rmoveto
          129 -92 rlineto
          -15 23 22 -6 27 hhcurveto
          50 55 35 0 hvcurveto
          35 -105 vlineto
          -148 93 rlineto
          165 54 43 168 114 vvcurveto
          192 -105 125 -180 -193 -128 -160 -182 -193 91 -126 171 -8 vhcurveto
          46 -7 22 -16 15 -11 rrcurveto
          -20 88 rmoveto
          -141 -83 88 191 252 95 25 111 112 86 -43 -234 -172 -55 -107 -125 hvcurveto
          endchar
        </CharString>
        <CharString name="R">
          104 0 -19 callgsubr
          220 94 hintmask 11101100
          55 43 -87 callsubr
          hintmask 11011100
          -43 vlineto
          83 -17 rlineto
          -528 vlineto
          149 268 rmoveto
          -63 hlineto
          hintmask 11101100
          -29 callgsubr
          hintmask 11011100
          53 callgsubr
        </CharString>
        <CharString name="Racute">
          104 0 -19 callgsubr
          220 94 hintmask 11101100
          199 716 -98 callgsubr
          -275 -771 -87 callsubr
          hintmask 11011100
          -43 vlineto
          83 -17 rlineto
          -528 vlineto
          149 268 rmoveto
          -63 hlineto
          hintmask 11101100
          -29 callgsubr
          hintmask 11011100
          53 callgsubr
        </CharString>
        <CharString name="Rcaron">
          104 0 -19 callgsubr
          220 94 hintmask 11101100
          183 -92 callgsubr
          -250 -726 -87 callsubr
          hintmask 11011100
          -43 vlineto
          83 -17 rlineto
          -528 vlineto
          149 268 rmoveto
          -63 hlineto
          hintmask 11101100
          -29 callgsubr
          hintmask 11011100
          53 callgsubr
        </CharString>
        <CharString name="Rcommaaccent">
          104 0 -19 callgsubr
          82 67 71 94 hintmask 11101110
          55 43 -87 callsubr
          hintmask 11011110
          -77 callgsubr
          149 268 rmoveto
          -63 hlineto
          hintmask 11101110
          -29 callgsubr
          hintmask 11011110
          47 callgsubr
          hintmask 11101110
          2 -515 rmoveto
          -93 callsubr
        </CharString>
        <CharString name="S">
          -20 callgsubr
          hintmask 00000000
          hintmask 11101000
          58 187 -82 callsubr
        </CharString>
        <CharString name="Sacute">
          -20 callgsubr
          hintmask 11011000
          177 716 -98 callgsubr
          hintmask 11101000
          -250 -627 rmoveto
          -143 vlineto
          -27 30 83 -27 79 hhcurveto
          102 117 53 141 hvcurveto
          hintmask 11011000
          232 -323 -75 164 vvcurveto
          55 23 41 101 vhcurveto
          hintmask 11010100
          61 43 -23 0 54 callgsubr
          49 151 hlineto
          10 -23 -80 15 -66 hhcurveto
          -132 -82 -73 -110 hvcurveto
          hintmask 11011000
          -223 324 78 -170 vvcurveto
          -90 -46 -24 -93 vhcurveto
          hintmask 11101000
          -65 -43 32 7 -9 hvcurveto
          -15 100 rlineto
          endchar
        </CharString>
        <CharString name="Sacute.loclPLK">
          -20 callgsubr
          hintmask 11011000
          231 -42 callsubr
          hintmask 11101000
          -244 -635 -82 callsubr
        </CharString>
        <CharString name="Scaron">
          -20 callgsubr
          hintmask 11011000
          141 -92 callgsubr
          hintmask 11101000
          -205 -582 -82 callsubr
        </CharString>
        <CharString name="Scedilla">
          7 -187 42 136 57 553 59 hstemhm
          58 54 -53 87 150 68 19 86 -76 49 hintmask 11101010
          183 -34 callsubr
          hintmask 11101110
          40 callgsubr
          -17 4 rlineto
          20 vlineto
          hintmask 11101010
          95 8 99 55 130 232 -323 -75 164 vvcurveto
          55 23 41 101 vhcurveto
          hintmask 11101001
          61 43 -23 0 54 callgsubr
          49 151 hlineto
          10 -23 -80 15 -66 hhcurveto
          -132 -82 -73 -110 hvcurveto
          hintmask 11101010
          -223 324 78 -170 vvcurveto
          -91 -46 -23 -93 vhcurveto
          hintmask 11110110
          -65 -43 32 7 -9 hvcurveto
          -15 100 rlineto
          -54 -143 hlineto
          27 -25 72 -24 73 -4 -21 -50 rcurveline
          -46 callgsubr
          vhcurveto
          hintmask 11101010
          41 callsubr
          hvcurveto
          endchar
        </CharString>
        <CharString name="Scircumflex">
          -20 callgsubr
          hintmask 11011000
          104 716 -102 callgsubr
          hintmask 11101000
          -125 -593 -82 callsubr
        </CharString>
        <CharString name="Scommaaccent">
          7 -10 58 553 59 hstemhm
          58 54 -53 87 96 67 74 86 -76 49 hintmask 00000000
          hintmask 11100100
          30 callgsubr
          hintmask 11010100
          49 callgsubr
          hintmask 11010010
          61 43 -23 0 54 callgsubr
          49 151 hlineto
          10 -23 -80 15 -66 hhcurveto
          -132 -82 -73 -110 hvcurveto
          hintmask 11010100
          48 callsubr
          hintmask 11101100
          -65 -43 32 7 -9 hvcurveto
          -15 100 rlineto
          113 -374 rmoveto
          -93 callsubr
        </CharString>
        <CharString name="T">
          34 0 44 440 11 callgsubr
          163 49 hintmask 10101100
          145 44 -12 callgsubr
        </CharString>
        <CharString name="Tbar">
          34 0 44 261 57 122 11 callgsubr
          163 49 hintmask 11010110
          457 590 rmoveto
          hintmask 11100110
          20 -106 rlineto
          49 hlineto
          hintmask 11011110
          164 -511 vlineto
          hintmask 11101110
          -164 49 vlineto
          hintmask 11010110
          21 106 rlineto
          142 -228 -177 -57 177 -246 hlineto
          34 callsubr
          246 177 57 -177 228 vlineto
          endchar
        </CharString>
        <CharString name="Tcaron">
          34 0 44 440 11 callgsubr
          163 49 hintmask 10101100
          148 -92 callgsubr
          -125 -725 -12 callgsubr
        </CharString>
        <CharString name="Thorn">
          54 0 44 112 50 247 57 94 44 hstem
          141 87 216 92 vstem
          59 22 callgsubr
          97 78 vlineto
          149 81 58 143 118 -77 35 -142 hvcurveto
          -89 79 hlineto
          82 15 rlineto
          44 -251 -44 vlineto
          82 -15 rlineto
          -530 vlineto
          147 147 rmoveto
          -60 247 83 hlineto
          86 47 -27 -90 -99 -49 -31 -107 hvcurveto
          endchar
        </CharString>
        <CharString name="U">
          -46 callsubr
          127 589 -105 callgsubr
          endchar
        </CharString>
        <CharString name="Uacute">
          -46 callsubr
          297 716 -98 callgsubr
          -301 -225 -105 callgsubr
          endchar
        </CharString>
        <CharString name="Ubreve">
          -43 callgsubr
          44 61 hstem
          127 87 336 65 vstem
          286 821 -95 callgsubr
          -159 -232 -105 callgsubr
          endchar
        </CharString>
        <CharString name="Ucircumflex">
          -46 callsubr
          226 716 -102 callgsubr
          -178 -191 -105 callgsubr
          endchar
        </CharString>
        <CharString name="Udieresis">
          -43 callgsubr
          55 116 66 callsubr
          11 106 105 106 8 65 hintmask 00000000
          hintmask 11111110
          276 703 -104 callgsubr
          hintmask 11110010
          -360 -114 -105 callgsubr
          endchar
        </CharString>
        <CharString name="Ugrave">
          -46 callsubr
          245 767 -87 callgsubr
          -118 -178 -105 callgsubr
          endchar
        </CharString>
        <CharString name="Uhorn">
          -22 callgsubr
          790 714 -94 callsubr
          hintmask 11011100
          306 vlineto
          hintmask 10111100
          143 35 32 65 30 vvcurveto
          endchar
        </CharString>
        <CharString name="Uhungarumlaut">
          -46 callsubr
          301 806 rmoveto
          -45 callsubr
          184 hmoveto
          -45 callsubr
          -358 -217 -105 callgsubr
          endchar
        </CharString>
        <CharString name="Umacron">
          -43 callgsubr
          75 58 hstem
          127 87 336 65 vstem
          218 -25 callgsubr
          -423 -192 -105 callgsubr
          endchar
        </CharString>
        <CharString name="Uogonek">
          225 -187 60 114 29 callgsubr
          hstem
          127 87 151 66 119 65 vstem
          127 589 rmoveto
          -311 vlineto
          -193 43 -98 189 25 22 1 3 21 vhcurveto
          -34 -24 -28 -35 -45 -59 callgsubr
          44 59 42 14 10 hvcurveto
          87 41 24 90 134 vvcurveto
          -10 callgsubr
        </CharString>
        <CharString name="Uring">
          -43 callgsubr
          1 43 88 43 66 callsubr
          80 48 86 48 74 65 hintmask 00000000
          hintmask 10111111
          294 -6 callsubr
          -259 -103 rmoveto
          -311 vlineto
          -193 43 -98 189 208 48 101 190 vhcurveto
          hintmask 11011111
          -10 callgsubr
        </CharString>
        <CharString name="Utilde">
          -46 callsubr
          191 728 -101 callsubr
          -101 -188 -105 callgsubr
          endchar
        </CharString>
        <CharString name="V">
          95 16 -21 612 41 hstemhm
          -9 165 -165 620 -131 131 hintmask 11010000
          52 591 rmoveto
          231 -596 rlineto
          49 hlineto
          hintmask 11101000
          220 596 59 16 rlineto
          41 -211 -41 vlineto
          80 -16 rlineto
          -18 vlineto
          -160 -452 -164 455 rlineto
          15 -21 callgsubr
          -240 -41 vlineto
          endchar
        </CharString>
        <CharString name="W">
          438 16 -21 612 41 hstemhm
          0 165 175 178 296 131 hintmask 00000000
          hintmask 11111000
          734 648 -4 callgsubr
          -85 callsubr
        </CharString>
        <CharString name="Wacute">
          -13 callsubr
          630 767 3 callgsubr
          hintmask 11101100
          297 -33 -4 callgsubr
          -85 callsubr
        </CharString>
        <CharString name="Wcircumflex">
          -13 callsubr
          471 743 rmoveto
          122 -65 33 41 -74 61 rlineto
          32 -39 -22 22 -16 hhcurveto
          -14 -16 -17 -37 -46 hvcurveto
          -79 -64 25 -36 rlineto
          hintmask 11101100
          389 -32 -4 callgsubr
          -85 callsubr
        </CharString>
        <CharString name="Wdieresis">
          438 16 -21 612 41 38 116 hstemhm
          0 165 149 106 -80 178 7 106 183 131 hintmask 11111011
          365 686 -104 callgsubr
          158 -38 -4 callgsubr
          rlineto
          hintmask 11110101
          -85 callsubr
        </CharString>
        <CharString name="Wgrave">
          -13 callsubr
          545 716 rmoveto
          -131 98 rlineto
          12 -17 -14 10 -11 hhcurveto
          -19 -19 -22 -47 -4 hvcurveto
          193 -86 rlineto
          hintmask 11101100
          211 -33 -4 callgsubr
          -85 callsubr
        </CharString>
        <CharString name="X">
          86 0 45 547 56 -45 45 hstemhm
          5 208 -205 182 250 152 hintmask 00000000
          hintmask 10110100
          5 45 rmoveto
          -45 208 43 vlineto
          -65 13 rlineto
          18 vlineto
          138 198 140 -201 rlineto
          -12 vlineto
          -70 -14 rlineto
          -45 252 45 vlineto
          -71 14 -191 283 180 250 66 14 rlineto
          42 -221 -43 vlineto
          hintmask 11000100
          69 -13 rlineto
          -18 vlineto
          -128 -180 rlineto
          hintmask 10101000
          -122 177 rlineto
          19 vlineto
          60 13 rlineto
          45 -242 -45 vlineto
          63 -21 180 -259 rlineto
          hintmask 10110000
          -183 -265 rlineto
          endchar
        </CharString>
        <CharString name="Y">
          57 callgsubr
          -9 callgsubr
          179 44 rmoveto
          -44 251 44 vlineto
          -96 callgsubr
          endchar
        </CharString>
        <CharString name="Y.loclGUA">
          -37 callgsubr
          413 648 -95 callsubr
        </CharString>
        <CharString name="Yacute">
          57 callgsubr
          hstem
          -5 166 96 87 118 132 vstem
          222 716 -98 callgsubr
          -178 -770 rmoveto
          -44 251 44 vlineto
          -96 callgsubr
          endchar
        </CharString>
        <CharString name="Yacute.loclGUA">
          -37 callgsubr
          308 716 -98 callgsubr
          -26 -166 -95 callsubr
        </CharString>
        <CharString name="Ycircumflex">
          57 callgsubr
          -9 callgsubr
          161 716 -102 callgsubr
          -61 -736 rmoveto
          -44 251 44 vlineto
          -96 callgsubr
          endchar
        </CharString>
        <CharString name="Ycircumflex.loclGUA">
          -37 callgsubr
          213 716 -102 callgsubr
          121 -132 -95 callsubr
        </CharString>
        <CharString name="Ydieresis">
          57 callgsubr
          46 116 hstemhm
          -5 166 -10 106 0 87 18 106 -6 132 hintmask 00000000
          hintmask 11101010
          202 694 -104 callgsubr
          -238 -650 rmoveto
          -44 vlineto
          hintmask 11110101
          251 44 hlineto
          -96 callgsubr
          endchar
        </CharString>
        <CharString name="Ydieresis.loclGUA">
          206 -14 51 162 63 342 44 38 116 hstemhm
          123 48 -44 87 -7 106 105 106 -16 87 hintmask 0000000000000000
          hintmask 1111001100000000
          258 686 -104 callgsubr
          -56 -38 rmoveto
          -44 vlineto
          hintmask 1110010010000000
          95 -17 rlineto
          -250 vlineto
          -48 -43 -50 -27 -63 hhcurveto
          -113 -25 84 119 hvcurveto
          124 -83 callgsubr
          -144 vlineto
          -150 44 -96 160 70 53 19 41 54 vhcurveto
          -20 vlineto
          -108 -39 -94 -128 vhcurveto
          hintmask 1110100010000000
          -47 -45 13 27 -49 hvcurveto
          -29 110 rlineto
          -48 -144 hlineto
          -40 74 68 -17 76 hhcurveto
          158 96 73 192 hvcurveto
          338 vlineto
          73 15 rlineto
          44 vlineto
          endchar
        </CharString>
        <CharString name="Ygrave">
          57 callgsubr
          -9 callgsubr
          171 767 -87 callgsubr
          8 -723 rmoveto
          -44 251 44 vlineto
          -96 callgsubr
          endchar
        </CharString>
        <CharString name="Ygrave.loclGUA">
          -37 callgsubr
          223 767 -87 callgsubr
          190 -119 -95 callsubr
        </CharString>
        <CharString name="Z">
          -30 callgsubr
          hintmask 00000000
          hintmask 10011001
          35 59 -65 callgsubr
        </CharString>
        <CharString name="Zacute">
          -30 callgsubr
          hintmask 10010101
          194 716 -98 callgsubr
          hintmask 10011001
          -290 -755 -65 callgsubr
        </CharString>
        <CharString name="Zacute.loclPLK">
          -30 callgsubr
          hintmask 10010101
          254 -42 callsubr
          hintmask 10011001
          -290 -763 -65 callgsubr
        </CharString>
        <CharString name="Zcaron">
          -30 callgsubr
          hintmask 10010101
          160 -92 callgsubr
          hintmask 10011001
          -247 -710 -65 callgsubr
        </CharString>
        <CharString name="Zdotaccent">
          52 0 59 -59 163 322 163 -59 59 39 128 hstemhm
          35 110 -100 49 122 117 62 70 callsubr
          hintmask 1001101101000000
          272 687 -105 callsubr
          hintmask 1001110101000000
          -237 -628 rmoveto
          -59 489 vlineto
          hintmask 0101101101000000
          163 -49 vlineto
          hintmask 1001110110000000
          -29 -104 rlineto
          -301 12 hlineto
          370 511 rlineto
          66 vlineto
          hintmask 1001101101000000
          -470 hlineto
          hintmask 1010101101000000
          -163 49 vlineto
          hintmask 1001101110000000
          29 104 rlineto
          272 -19 hlineto
          endchar
        </CharString>
        <CharString name="a">
          -35 callsubr
          308 42 rmoveto
          4 hlineto
          hintmask 01111000
          -107 callgsubr
          hintmask 10111000
          -102 callsubr
          endchar
        </CharString>
        <CharString name="aacute">
          -32 -32 callgsubr
          hstemhm
          33 88 181 82 hintmask 10111000
          138 565 -99 callsubr
          56 -644 rmoveto
          4 hlineto
          hintmask 01111000
          -107 callgsubr
          hintmask 10111000
          -102 callsubr
          endchar
        </CharString>
        <CharString name="abreve">
          -32 -32 callgsubr
          49 65 hstemhm
          33 88 -51 51 181 82 -46 34 hintmask 00000000
          hintmask 10110101
          121 706 -23 callsubr
          182 -664 rmoveto
          4 hlineto
          hintmask 01111010
          -107 callgsubr
          hintmask 10111010
          -102 callsubr
          endchar
        </CharString>
        <CharString name="acircumflex">
          -32 -32 callgsubr
          hstemhm
          33 88 181 82 hintmask 10111000
          78 577 -103 callgsubr
          119 -641 rmoveto
          4 hlineto
          hintmask 01111000
          -107 callgsubr
          hintmask 10111000
          -102 callsubr
          endchar
        </CharString>
        <CharString name="acute">
          -305 535 182 hstem
          0 202 vstem
          565 vmoveto
          28 -30 174 120 rlineto
          41 -12 -22 21 -17 hhcurveto
          -14 -12 -13 -18 -16 hvcurveto
          endchar
        </CharString>
        <CharString name="acutecomb">
          535 182 hstem
          -202 202 vstem
          -202 565 -99 callsubr
          endchar
        </CharString>
        <CharString name="acutecomb.case">
          55 callgsubr
          716 -98 callgsubr
          endchar
        </CharString>
        <CharString name="adieresis">
          -32 -32 callgsubr
          71 116 hstemhm
          33 88 -64 106 105 106 -72 82 hintmask 00000000
          hintmask 10110110
          108 575 -39 callsubr
          -16 -533 rmoveto
          4 hlineto
          hintmask 01111001
          -107 callgsubr
          hintmask 10111001
          -102 callsubr
          endchar
        </CharString>
        <CharString name="ae">
          5 callsubr
          hintmask 0000000000000000
          hintmask 0110011110000000
          313 271 -72 callsubr
        </CharString>
        <CharString name="aeacute">
          5 callsubr
          hintmask 1001011110000000
          317 565 -99 callsubr
          hintmask 0110011110000000
          -113 -415 -72 callsubr
        </CharString>
        <CharString name="agrave">
          -32 -32 callgsubr
          151 -20 51 callgsubr
          118 655 rmoveto
          -89 callsubr
          185 -613 rmoveto
          4 hlineto
          hintmask 01111100
          -107 callgsubr
          hintmask 10111100
          -102 callsubr
          endchar
        </CharString>
        <CharString name="amacron">
          -32 -32 callgsubr
          102 57 51 callgsubr
          59 -41 callsubr
          -88 -621 rmoveto
          4 hlineto
          hintmask 01111100
          -107 callgsubr
          hintmask 10111100
          -102 callsubr
          endchar
        </CharString>
        <CharString name="ampersand">
          104 -10 62 -52 43 295 45 219 58 hstemhm
          44 88 -40 77 203 49 57 61 hintmask 10111011
          456 55 rmoveto
          hintmask 01110111
          25 -25 rlineto
          -23 23 26 -7 22 hhcurveto
          86 43 hlineto
          -77 17 -55 56 rlineto
          22 38 11 43 41 vvcurveto
          68 -7 42 -12 35 vhcurveto
          -136 -45 hlineto
          83 -16 rlineto
          4 -10 7 -29 -46 vvcurveto
          -29 -5 -26 -9 -22 vhcurveto
          -218 226 rlineto
          -59 61 -18 18 47 vvcurveto
          56 23 34 74 58 28 -16 0 vhcurveto
          20 -102 rlineto
          49 148 hlineto
          10 -23 -57 18 -66 hhcurveto
          -120 -63 -71 -88 -56 29 -45 49 -53 hvcurveto
          hintmask 10111011
          -39 -19 -87 -54 -105 vvcurveto
          -143 117 -36 112 78 61 26 39 44 vhcurveto
          -255 261 rmoveto
          216 -221 rlineto
          -28 -33 -46 -15 -52 hhcurveto
          -122 -32 46 85 78 46 40 23 15 hvcurveto
          endchar
        </CharString>
        <CharString name="aogonek">
          -32 -187 60 120 63 -36 -21 441 64 hstemhm
          33 88 143 66 -28 82 hintmask 11011010
          448 -136 rmoveto
          hintmask 11011100
          -18 30 rlineto
          -11 -19 -22 -10 -16 hhcurveto
          -28 -15 14 30 32 30 30 23 19 hvcurveto
          hintmask 11011010
          40 4 32 14 0 vvcurveto
          38 vlineto
          -71 14 rlineto
          321 vlineto
          63 -44 52 -87 -54 -150 -42 -83 -28 23 -18 23 23 9 7 0 vhcurveto
          15 92 rlineto
          0 27 8 35 63 35 -25 -59 vhcurveto
          -75 vlineto
          -90 -13 rlineto
          -120 -17 -59 -51 -83 vvcurveto
          -66 40 -58 102 vhcurveto
          hintmask 11011100
          64 53 37 12 11 hvcurveto
          4 hlineto
          hintmask 10111100
          1 -17 7 -20 21 -6 rrcurveto
          -37 -25 -35 -38 -49 vvcurveto
          -49 35 -25 48 vhcurveto
          hintmask 11011010
          57 44 51 0 hvcurveto
          -146 369 rmoveto
          -159 vlineto
          0 -39 -18 -50 -60 -32 35 41 64 57 28 124 9 vhcurveto
          endchar
        </CharString>
        <CharString name="approxequal">
          23 147 246 hstem
          67 396 vstem
          67 325 -11 callsubr
          -31 -193 -11 callsubr
          endchar
        </CharString>
        <CharString name="aring">
          -32 -32 callgsubr
          31 43 94 45 hstemhm
          33 88 8 53 80 54 -14 82 hintmask 1011101010000000
          129 622 -17 callgsubr
          80 -536 rmoveto
          4 hlineto
          hintmask 0111111010000000
          -107 callgsubr
          hintmask 1011111010000000
          -66 40 -58 102 vhcurveto
          hintmask 1011101010000000
          64 53 37 12 11 hvcurveto
          hintmask 1011111010000000
          20 callsubr
        </CharString>
        <CharString name="aringacute">
          -25 callsubr
          31 43 94 45 hstemhm
          38 88 20 53 80 54 -26 82 hintmask 1011101010000000
          191 788 -99 callsubr
          -154 -287 -17 callgsubr
          68 -536 rmoveto
          4 hlineto
          hintmask 0111111010000000
          -107 callgsubr
          hintmask 1011111010000000
          -66 40 -58 102 vhcurveto
          hintmask 1011101010000000
          64 53 37 12 11 hvcurveto
          hintmask 1011111010000000
          20 callsubr
        </CharString>
        <CharString name="asciicircum">
          23 573 76 0 -20 hstemhm
          44 443 hintmask 01100000
          235 649 rmoveto
          -191 -387 rlineto
          73 hlineto
          hintmask 10100000
          149 311 147 -311 rlineto
          74 hlineto
          -190 387 rlineto
          endchar
        </CharString>
        <CharString name="asciitilde">
          23 229 106 hstem
          74 382 vstem
          74 258 rmoveto
          21 -26 75 33 101 -23 rlineto
          -7 34 19 -6 35 hhcurveto
          23 22 9 20 16 hvcurveto
          36 47 -20 28 -76 -35 -101 23 rlineto
          7 -33 -33 7 -25 hhcurveto
          -26 -18 -11 -20 -15 hvcurveto
          endchar
        </CharString>
        <CharString name="asterisk">
          -123 497 -20 180 -20 hstemhm
          11 160 -160 356 hintmask 11010000
          186 712 rmoveto
          -19 hlineto
          -40 -9 -15 -17 -16 9 -19 8 -17 hvcurveto
          36 -78 38 14 rlineto
          158 37 rmoveto
          42 -13 -10 14 -19 hhcurveto
          -23 -15 -20 -15 -16 hvcurveto
          -62 -58 25 -33 rlineto
          hintmask 11100000
          -211 43 rmoveto
          -8 -20 -4 -15 -11 vvcurveto
          -27 24 -5 15 10 17 2 1 10 vhcurveto
          84 10 rlineto
          41 vlineto
          138 -59 rmoveto
          -75 40 -23 -34 108 -104 rlineto
          30 20 12 14 15 vvcurveto
          26 -31 11 -21 12 vhcurveto
          -203 -117 rmoveto
          -18 23 15 -9 12 hhcurveto
          33 3 44 23 4 hvcurveto
          15 83 -40 12 rlineto
          endchar
        </CharString>
        <CharString name="at">
          255 -108 57 108 52 -46 65 254 57 -24 35 123 56 hstemhm
          26 75 111 71 385 71 hintmask 1101011110000000
          586 -39 rmoveto
          -15 27 rlineto
          1 -94 -40 -83 -174 -119 101 208 243 173 72 130 144 120 -83 -195 -136 -53 -50 -61 -31 -21 18 32 4 1 13 2 12 vhcurveto
          hintmask 1100111110000000
          43 262 rlineto
          -34 hlineto
          -31 -35 rlineto
          hintmask 1011011110000000
          0 -52 24 -42 -133 -44 -157 -83 -83 30 -53 67 64 67 67 0 vhcurveto
          hintmask 1101011110000000
          -55 14 51 -18 39 hhcurveto
          118 77 94 164 161 -120 153 -205 -224 -164 -185 -192 -212 139 -148 210 133 78 68 1 hvcurveto
          -121 404 rmoveto
          hintmask 1011011110000000
          -33 -197 rlineto
          0 -53 -40 -46 -36 -14 26 72 53 19 67 19 21 vhcurveto
          7 6 26 8 24 hhcurveto
          hintmask 1101011110000000
          59 29 -17 0 hvcurveto
          endchar
        </CharString>
        <CharString name="atilde">
          -32 -32 callgsubr
          153 -20 51 callgsubr
          76 647 -101 callgsubr
          227 -605 rmoveto
          4 hlineto
          hintmask 01111100
          -107 callgsubr
          hintmask 10111100
          -102 callsubr
          endchar
        </CharString>
        <CharString name="b">
          11 -9 58 -31 -21 437 70 hstemhm
          72 82 234 90 hintmask 10111000
          72 620 rmoveto
          hintmask 01111000
          -623 41 vlineto
          hintmask 10111000
          28 38 rlineto
          8 hlineto
          -12 13 39 -32 66 hhcurveto
          113 98 97 188 161 -80 67 -105 -74 -47 -35 -17 -18 hvcurveto
          233 vlineto
          -27 14 -137 -27 rlineto
          -39 vlineto
          164 -564 rmoveto
          350 vlineto
          5 18 40 10 45 hhcurveto
          97 34 -58 -128 -148 -51 -51 -82 -42 -42 13 7 -17 hvcurveto
          endchar
        </CharString>
        <CharString name="backslash">
          -157 -167 862 hstem
          -54 425 vstem
          -54 668 rmoveto
          363 -835 62 27 -365 835 rlineto
          endchar
        </CharString>
        <CharString name="bar">
          43 callsubr
          -855 60 855 vlineto
          endchar
        </CharString>
        <CharString name="braceleft">
          -300 -151 850 hstemhm
          6 123 -92 76 hintmask 10100000
          67 240 rmoveto
          -30 -233 rlineto
          -83 55 -53 73 -22 vhcurveto
          17 42 rlineto
          -55 30 -14 15 62 vvcurveto
          hintmask 11000000
          16 218 rlineto
          52 -44 13 -7 2 vhcurveto
          5 1 46 12 54 vvcurveto
          hintmask 10100000
          -15 200 rlineto
          62 13 16 55 30 vhcurveto
          -18 41 rlineto
          -73 -22 -54 -53 -83 vvcurveto
          hintmask 11000000
          30 -213 -61 -27 rlineto
          -34 vlineto
          endchar
        </CharString>
        <CharString name="braceright">
          -300 658 -20 hstemhm
          78 122 -106 76 hintmask 10100000
          25 -109 rmoveto
          17 -42 rlineto
          73 22 55 53 83 vvcurveto
          hintmask 11000000
          -30 233 60 27 rlineto
          34 vlineto
          hintmask 10100000
          -60 27 30 213 rlineto
          83 -54 53 -73 22 vhcurveto
          -18 -41 rlineto
          55 -30 13 -16 -62 vvcurveto
          hintmask 11000000
          -15 -200 rlineto
          -54 44 -12 7 -1 vhcurveto
          -8 -2 -43 -13 -52 vvcurveto
          hintmask 10100000
          16 -218 rlineto
          -62 -14 -15 -55 -30 vhcurveto
          endchar
        </CharString>
        <CharString name="bracketleft">
          -255 -151 43 764 43 hstem
          70 70 vstem
          70 699 rmoveto
          -850 158 43 vlineto
          -88 12 rlineto
          740 vlineto
          88 12 rlineto
          43 vlineto
          endchar
        </CharString>
        <CharString name="bracketright">
          -255 -151 43 764 43 hstem
          112 70 vstem
          24 -108 rmoveto
          -43 158 850 -158 -43 vlineto
          88 -12 rlineto
          -740 vlineto
          endchar
        </CharString>
        <CharString name="breve">
          -205 553 65 hstem
          0 65 callsubr
          51 706 -44 callgsubr
        </CharString>
        <CharString name="brokenbar">
          43 callsubr
          -365 60 365 vlineto
          -60 -490 rmoveto
          -365 60 365 vlineto
          endchar
        </CharString>
        <CharString name="bullet">
          -94 192 227 hstem
          90 227 vstem
          90 305 rmoveto
          -63 50 -50 63 63 51 50 63 63 -51 51 -63 -63 -50 -51 -63 vhcurveto
          endchar
        </CharString>
        <CharString name="c">
          40 callsubr
          399 52 -86 callsubr
        </CharString>
        <CharString name="cacute">
          -53 -9 70 385 58 hstem
          40 88 vstem
          163 565 -99 callsubr
          142 -634 -86 callsubr
        </CharString>
        <CharString name="cacute.loclPLK">
          40 callsubr
          206 -41 callgsubr
          112 -633 -86 callsubr
        </CharString>
        <CharString name="caron">
          -212 544 165 hstem
          0 295 vstem
          673 vmoveto
          -91 callsubr
          endchar
        </CharString>
        <CharString name="ccaron">
          -53 -9 70 385 58 hstem
          40 88 vstem
          100 673 rmoveto
          -91 callsubr
          280 -656 -86 callsubr
        </CharString>
        <CharString name="ccedilla">
          -53 -187 42 137 69 -48 -21 22 -21 453 58 hstemhm
          40 88 161 68 hintmask 10011110
          176 -34 callsubr
          60 63 21 70 hvcurveto
          hintmask 10101110
          42 callsubr
          vhcurveto
          -17 4 rlineto
          21 vlineto
          hintmask 11001110
          93 5 53 55 0 vvcurveto
          -13 30 rlineto
          0 -48 -21 -64 -104 -57 49 136 133 31 67 101 41 24 -12 0 vhcurveto
          16 -94 rlineto
          0 7 -7 25 29 17 25 21 65 -52 60 -101 -148 -78 -127 -143 vhcurveto
          hintmask 10011110
          -146 77 -82 107 -13 vhcurveto
          -22 -52 -46 callgsubr
          41 callsubr
          vhcurveto
          endchar
        </CharString>
        <CharString name="ccircumflex">
          40 callsubr
          91 577 -103 callgsubr
          202 -631 -86 callsubr
        </CharString>
        <CharString name="cdotaccent">
          -68 -9 70 385 58 64 128 hstem
          25 88 67 117 vstem
          236 -80 callsubr
          163 -516 -86 callsubr
        </CharString>
        <CharString name="cedilla">
          -348 -187 42 hstemhm
          48 41 21 68 hintmask 10100000
          -3 -34 callsubr
          40 callgsubr
          hintmask 11100000
          -17 4 rlineto
          29 -41 vlineto
          hintmask 10100000
          -25 -59 -46 callgsubr
          41 callsubr
          vhcurveto
          endchar
        </CharString>
        <CharString name="cent">
          -7 -51 178 403 173 hstem
          70 90 101 59 68 50 vstem
          259 60 rmoveto
          4 -111 rlineto
          55 hlineto
          -28 callsubr
          70 callgsubr
        </CharString>
        <CharString name="cent.osf">
          -7 -117 178 -67 67 403 173 hstemhm
          70 90 101 59 68 50 hintmask 01111000
          259 -6 rmoveto
          hintmask 10111000
          4 -111 rlineto
          55 hlineto
          hintmask 01111100
          -28 callsubr
          hintmask 01111000
          70 callgsubr
        </CharString>
        <CharString name="circumflex">
          -211 544 166 hstem
          0 296 vstem
          577 vmoveto
          28 -32 115 83 118 -84 35 35 -106 110 rlineto
          15 -15 -12 6 -11 hhcurveto
          -12 -16 -9 -18 -18 hvcurveto
          endchar
        </CharString>
        <CharString name="colon">
          -286 -11 130 203 130 hstem
          52 119 vstem
          109 322 rmoveto
          -63 callgsubr
          -333 vmoveto
          -63 callgsubr
          endchar
        </CharString>
        <CharString name="comma">
          -323 -129 238 hstem
          62 91 vstem
          56 -129 9 callsubr
        </CharString>
        <CharString name="copyright">
          140 -1 53 103 50 12 53 174 51 101 55 hstemhm
          -2 63 102 71 168 33 -28 31 152 60 hintmask 1101111011000000
          -2 325 rmoveto
          -180 146 -146 180 180 146 146 180 180 -146 146 -180 -180 -146 -146 -180 vhcurveto
          326 -273 rmoveto
          -152 -111 122 150 150 111 122 152 151 115 -122 -150 -150 -115 -122 -151 hvcurveto
          hintmask 1111111011000000
          83 218 rmoveto
          -10 -53 rlineto
          hintmask 1101111011000000
          0 -12 -12 -51 -64 -36 28 89 98 30 24 69 vhcurveto
          hintmask 1101111101000000
          39 20 -6 0 hvcurveto
          10 -52 rlineto
          33 94 hlineto
          9 -22 -43 6 -43 hhcurveto
          -103 -61 -80 -92 -108 49 -60 107 hvcurveto
          hintmask 1101111011000000
          61 38 13 9 20 hvcurveto
          hintmask 1111111011000000
          93 vlineto
          endchar
        </CharString>
        <CharString name="currency">
          23 125 73 257 72 hstem
          59 72 258 72 vstem
          101 201 rmoveto
          -87 -91 37 -37 92 88 rlineto
          -23 33 40 -13 44 hhcurveto
          46 42 15 26 34 hvcurveto
          97 -93 37 37 -94 97 rlineto
          24 33 15 41 45 vvcurveto
          43 -14 40 -23 32 vhcurveto
          92 96 -37 37 -95 -90 rlineto
          27 -34 -43 16 -47 hhcurveto
          -45 -41 -15 -24 -33 hvcurveto
          -90 86 -37 -37 85 -89 rlineto
          -25 -34 -15 -42 -46 vvcurveto
          -47 16 -44 26 -34 vhcurveto
          30 125 rmoveto
          69 60 60 69 69 60 -60 -69 -69 -60 -59 -69 -69 -60 59 69 vhcurveto
          endchar
        </CharString>
        <CharString name="d">
          31 64 callgsubr
          hstemhm
          40 89 234 82 hintmask 10111000
          367 48 rmoveto
          hintmask 01111000
          -70 callgsubr
          hintmask 10111000
          -54 callsubr
          endchar
        </CharString>
        <CharString name="dagger">
          -73 21 -21 427 72 hstem
          180 73.5 vstem
          187 433 rmoveto
          -14 -433 rlineto
          87 hlineto
          -13 433 158 -12 rlineto
          78 vlineto
          -158 -12 12 182 rlineto
          -84 hlineto
          12 -182 -158 12 rlineto
          -78 vlineto
          endchar
        </CharString>
        <CharString name="daggerdbl">
          -73 21 -21 161 66 215 60 hstemhm
          181 72 -66 60 hintmask 00000000
          hintmask 11110000
          187 167 rmoveto
          -12 -167 rlineto
          84 hlineto
          -12 167 158 -12 rlineto
          78 vlineto
          hintmask 11101000
          -158 -12 rlineto
          227 vlineto
          158 -12 rlineto
          78 vlineto
          hintmask 11110000
          -158 -12 12 167 rlineto
          -84 hlineto
          12 -167 -158 12 rlineto
          -78 vlineto
          hintmask 11101000
          158 12 rlineto
          -227 vlineto
          -158 12 rlineto
          -78 vlineto
          endchar
        </CharString>
        <CharString name="dcaron">
          38 64 callgsubr
          38 177 hstemhm
          41 89 234 82 63 70 hintmask 10111110
          493 -56 callgsubr
          -125 -494 rmoveto
          hintmask 01111110
          -70 callgsubr
          hintmask 10111110
          -54 callsubr
          endchar
        </CharString>
        <CharString name="dcroat">
          38 64 callgsubr
          48 48 hstemhm
          41 89 234 82 hintmask 10111100
          368 48 rmoveto
          hintmask 01111100
          13 -52 136 20 rlineto
          39 vlineto
          -71 15 rlineto
          482 38 48 -38 85 vlineto
          -28 14 -136 -17 rlineto
          -39 vlineto
          82 -13 rlineto
          -30 -181 -48 181 -87 vlineto
          13 -15 -36 26 -59 hhcurveto
          -91 -122 -73 -213 hvcurveto
          hintmask 10111100
          -54 callsubr
          endchar
        </CharString>
        <CharString name="degree">
          -269 474 43 105 45 hstem
          22 44 105 44 vstem
          22 570 rmoveto
          -54 42 -42 54 54 43 42 54 54 -43 43 -54 -54 -42 -43 -54 vhcurveto
          44 -1 rmoveto
          30 23 23 29 30 23 -23 -30 -29 -23 -23 -30 -29 -23 23 29 vhcurveto
          endchar
        </CharString>
        <CharString name="dieresis">
          -190 575 116 hstem
          0 106 105 106 vstem
          51 575 -104 callgsubr
          endchar
        </CharString>
        <CharString name="divide">
          23 37 130 72 63 69 130 hstem
          207 119 vstem
          264 371 rmoveto
          -63 callgsubr
          -197 -69 rmoveto
          -63 395 63 vlineto
          -198 -265 rmoveto
          -63 callgsubr
          endchar
        </CharString>
        <CharString name="dollar">
          -23 -117 171 -57 57 540 58 -58 166 hstemhm
          59 50 -49 87 72.5 58 -50.5 58 77 86 -73 49 hintmask 0110010110000000
          448 188 rmoveto
          111 -78 37 -96 41 vhcurveto
          -77 32 -50 21 74 vvcurveto
          62 35 28 74 vhcurveto
          hintmask 0110010101000000
          44 33 -10 -13 23 54 callgsubr
          49 151 hlineto
          -25 9 -61 12 -51 3 rrcurveto
          hintmask 0101010110000000
          -4 108 rlineto
          -54 hlineto
          hintmask 0110010110000000
          -4 -109 rlineto
          -102 -13 -63 -67 -92 vvcurveto
          -114 94 -40 72 -30 vhcurveto
          90 -37 46 -24 -76 vvcurveto
          -69 -38 -35 -76 vhcurveto
          hintmask 0110101010000000
          -52 -46 17 22 -27 hvcurveto
          -14 100 rlineto
          -50 -143 hlineto
          28 -26 67 -22 63 -5 rrcurveto
          hintmask 1010011010000000
          5 -114 rlineto
          53 hlineto
          hintmask 0110011010000000
          5 116 rlineto
          hintmask 0110010110000000
          101 14 67 72 103 vvcurveto
          endchar
        </CharString>
        <CharString name="dollar.osf">
          -27 -117 168 -59 59 -35 -21 471 64 hstemhm
          70 77 -73 45 101 57 62 82 -63 41 hintmask 0101101100000000
          218 -8 rmoveto
          hintmask 1001101100000000
          4 -109 rlineto
          53 hlineto
          hintmask 0011101100000000
          4 112 rlineto
          73 11 69 44 103 182 -274 -67 125 vvcurveto
          52 21 21 83 vhcurveto
          hintmask 0101101010000000
          52 39 -15 0 hvcurveto
          16 -72 rlineto
          41 129 hlineto
          -17 7 -53 12 -50 3 -4 107 rcurveline
          -54 hlineto
          -4 -109 rlineto
          -90 -14 -57 -59 -83 vvcurveto
          hintmask 0101101100000000
          -185 269 71 -121 vvcurveto
          -62 -13 -24 -89 vhcurveto
          hintmask 0101011100000000
          -56 -39 20 5 -9 hvcurveto
          -14 85 rlineto
          -45 -128 hlineto
          hintmask 0101101100000000
          23 -20 63 -18 58 -3 rrcurveto
          endchar
        </CharString>
        <CharString name="dotaccent">
          -390 568 128 hstem
          0 117 vstem
          56 -80 callsubr
          endchar
        </CharString>
        <CharString name="dotbelowcomb">
          -35 callgsubr
          hstem
          -117 117 vstem
          -61 -172 -105 callsubr
          endchar
        </CharString>
        <CharString name="dotlessi">
          -24 callgsubr
          42 callgsubr
          28 41 rmoveto
          -41 240 41 vlineto
          -85 callgsubr
          endchar
        </CharString>
        <CharString name="e">
          -48 -48 callgsubr
          hstem
          25 26 callgsubr
          404 57 -106 callgsubr
          endchar
        </CharString>
        <CharString name="eacute">
          -36 -48 callgsubr
          hstem
          37 26 callgsubr
          155 565 -99 callsubr
          152 -629 -106 callgsubr
          endchar
        </CharString>
        <CharString name="ebreve">
          -48 -48 callgsubr
          49 65 hstemhm
          25 88 -21 51 188 81 -52 34 hintmask 00000000
          hintmask 11110101
          143 706 -97 callsubr
          261 -649 -40 callsubr
        </CharString>
        <CharString name="ecaron">
          -36 -48 callgsubr
          hstem
          37 26 callgsubr
          95 673 rmoveto
          -91 callsubr
          287 -651 -106 callgsubr
          endchar
        </CharString>
        <CharString name="ecircumflex">
          -36 -48 callgsubr
          hstem
          37 26 callgsubr
          87 577 -103 callgsubr
          223 -626 -106 callgsubr
          endchar
        </CharString>
        <CharString name="edieresis">
          -36 -48 callgsubr
          71 116 hstemhm
          37 88 -36 106 105 106 -63 81 hintmask 00000000
          hintmask 11110110
          140 575 -104 callgsubr
          65 -518 51 callsubr
          vhcurveto
          hintmask 11101001
          -24 callsubr
          hvcurveto
          251 hlineto
          37 11 17 72 92 -47 90 -117 -129 -94 -111 -160 -133 69 -109 146 hvcurveto
          hintmask 11110110
          103 61 66 0 hvcurveto
          hintmask 11101001
          -15 callsubr
        </CharString>
        <CharString name="edotaccent">
          -36 -48 callgsubr
          64 128 hstem
          37 88 65 117 36 81 vstem
          246 -80 callsubr
          170 -511 -106 callgsubr
          endchar
        </CharString>
        <CharString name="egrave">
          -36 -48 callgsubr
          151 -20 hstem
          37 26 callgsubr
          132 655 rmoveto
          -89 callsubr
          284 -598 -106 callgsubr
          endchar
        </CharString>
        <CharString name="eight">
          -25 -10 58 546 66 hstem
          40 87 222 79 vstem
          430 506 rmoveto
          90 -60 64 -119 -107 -86 -70 -106 -73 41 -49 65 -36 vhcurveto
          -68 -39 -54 -64 -79 vvcurveto
          -98 69 -56 129 151 61 96 93 83 -51 46 -73 39 vhcurveto
          59 33 43 57 69 vvcurveto
          -183 -121 rmoveto
          -75 33 -34 28 59 vvcurveto
          52 26 37 78 76 33 -26 -75 -56 -21 -37 -41 -34 vhcurveto
          -13 6 -15 6 -14 7 rrcurveto
          -27 -85 rmoveto
          102 -40 47 -32 -62 vvcurveto
          -77 -38 -41 -82 -84 -36 40 80 48 21 51 52 40 vhcurveto
          6 -2 6 -3 6 -2 rrcurveto
          endchar
        </CharString>
        <CharString name="eight.osf">
          -27 -10 62 551 66 hstemhm
          41 80 -66 79 211 73 -61 82 hintmask 11011000
          164 324 rmoveto
          hintmask 11100100
          -67 -36 -56 -63 -77 vvcurveto
          -93 65 -65 126 147 60 91 92 87 -49 49 -77 40 vhcurveto
          hintmask 11011000
          58 33 47 56 74 vvcurveto
          95 -57 62 -118 -107 -81 -80 -96 -73 28 -55 81 -41 vhcurveto
          98 49 rmoveto
          -25 11 rlineto
          -73 30 -30 34 58 vvcurveto
          58 24 39 77 73 37 -34 -76 -64 -41 -28 -42 -28 vhcurveto
          hintmask 11100100
          -43 -73 rmoveto
          18 -6 rlineto
          77 -25 43 -41 -63 vvcurveto
          -72 -37 -41 -81 -85 -33 40 75 43 30 52 68 38 vhcurveto
          endchar
        </CharString>
        <CharString name="ellipsis">
          38 -11 117 hstem
          37 107 71 107 69 107 vstem
          89 -11 rmoveto
          10 callsubr
          178 hmoveto
          10 callsubr
          176 hmoveto
          10 callsubr
          endchar
        </CharString>
        <CharString name="emacron">
          -36 -48 callgsubr
          102 57 hstem
          37 26 callgsubr
          89 -41 callsubr
          -5 -606 -106 callgsubr
          endchar
        </CharString>
        <CharString name="emdash">
          493 237 59 hstem
          0 1000 vstem
          296 vmoveto
          -59 1000 59 vlineto
          endchar
        </CharString>
        <CharString name="endash">
          -7 237 59 hstem
          0 500 vstem
          296 vmoveto
          -59 500 59 vlineto
          endchar
        </CharString>
        <CharString name="eng">
          45 11 callsubr
          8 callgsubr
          hstemhm
          106 82 206 82 hintmask 01110110
          345 504 rmoveto
          26 callsubr
          hvcurveto
          hintmask 01101110
          -53 callgsubr
          -80 -23 callgsubr
          -78 14 rlineto
          hintmask 10110110
          367 -50 callgsubr
          -444 vlineto
          -108 -26 -31 callgsubr
          0 35 -10 48 70 37 30 52 vhcurveto
          450 vlineto
          hintmask 01110110
          102 -63 35 -68 vhcurveto
          endchar
        </CharString>
        <CharString name="eogonek">
          -36 -187 60 118 70 -46 -21 239 50 163 58 hstemhm
          37 88 98 66 54 81 hintmask 11011111
          407 -136 rmoveto
          -18 30 rlineto
          -11 -19 -22 -10 -16 hhcurveto
          -28 -15 14 30 hvcurveto
          hintmask 10111111
          50 78 49 0 vhcurveto
          -9 hlineto
          hintmask 11011111
          36 18 22 23 0 vvcurveto
          -50 callsubr
          -24 callsubr
          vhcurveto
          251 hlineto
          37 11 17 72 92 -47 90 -117 -129 -94 -111 -160 -133 69 -109 146 13 12 1 2 12 hvcurveto
          -35 -24 -31 -36 -47 -40 callgsubr
          -67 423 21 callgsubr
        </CharString>
        <CharString name="equal">
          23 158 60 99 60 hstem
          65 400 vstem
          65 377 rmoveto
          -60 400 60 vlineto
          -400 -159 rmoveto
          -60 400 60 vlineto
          endchar
        </CharString>
        <CharString name="estimated">
          281 -13 35 293 34 272 35 hstem
          62 139 390 140 vstem
          201 105 rmoveto
          210 530 vlineto
          198 -7 -131 143 -197 hhcurveto
          -185 -149 -150 -185 -185 149 -149 185 115 102 65 77 61 hvcurveto
          -48 hlineto
          -65 -57 -76 -42 -96 hhcurveto
          -83 -61 31 52 -52 hvcurveto
          390 244 rmoveto
          -390 190 hlineto
          51 52 62 31 82 hhcurveto
          80 62 -30 -50 52 hvcurveto
          endchar
        </CharString>
        <CharString name="eth">
          18 -9 58 363 63 166 47 hstem
          40 90 264 91 vstem
          170 570 rmoveto
          27 -39 102 66 48 -35 24 -54 12 -61 rlinecurve
          10 -20 -40 18 -46 hhcurveto
          -148 -89 -94 -143 -148 70 -99 148 141 86 103 217 166 -51 103 -74 56 hvcurveto
          70 45 -26 41 -91 -59 rlineto
          17 -37 -40 8 -41 hhcurveto
          -55 -23 -7 0 hvcurveto
          -40 vlineto
          55 44 -5 -13 35 hvcurveto
          139 -235 rmoveto
          3 -34 1 -35 -35 vvcurveto
          -151 -24 -84 -103 -128 -9 110 94 107 33 52 110 51 37 -13 -11 29 vhcurveto
          endchar
        </CharString>
        <CharString name="exclam">
          -306 -11 122 hstem
          35 112 vstem
          35 667 rmoveto
          34 -507 rlineto
          44 hlineto
          22 432 2 22 7 vvcurveto
          29 -7 27 -45 -37 -13 -10 0 vhcurveto
          53 -678 32 callgsubr
        </CharString>
        <CharString name="exclamdown">
          -306 -145 -21 566 122 hstem
          41 112 vstem
          95 400 36 callgsubr
          24 -49 rmoveto
          -44 hlineto
          -22 -432 -2 -22 -7 vvcurveto
          -29 7 -27 45 37 13 10 0 vhcurveto
          endchar
        </CharString>
        <CharString name="f">
          -207 0 41 396 57 136 71 hstem
          84 82 vstem
          15 41 rmoveto
          3 callsubr
          127 vlineto
          -32 callsubr
          58 callgsubr
          vhcurveto
          37 callsubr
          endchar
        </CharString>
        <CharString name="f_f">
          93 0 41 396 57 -57 59 134 71 hstemhm
          84 82 218 82 hintmask 11011100
          581 701 rmoveto
          58 callgsubr
          hvcurveto
          -10 -2 rlineto
          -207 127 hlineto
          -32 callsubr
          vhcurveto
          hintmask 10111100
          58 callgsubr
          hvcurveto
          hintmask 11011100
          37 callsubr
          -69 -14 rlineto
          -41 255 41 vlineto
          -104 16 rlineto
          380 218 -382 vlineto
          -69 -14 rlineto
          3 callsubr
          127 vlineto
          -32 callsubr
          vhcurveto
          endchar
        </CharString>
        <CharString name="fi">
          65 0 41 396 57 123 84 hstem
          96 82 209 82 vstem
          27 41 rmoveto
          -41 244 41 vlineto
          -93 16 rlineto
          380 126 vlineto
          83 -25 rlineto
          -357 vlineto
          -81 -14 rlineto
          -41 241 41 vlineto
          -78 14 rlineto
          428 vlineto
          -28 11 rlineto
          -263 107 hlineto
          9 8 26 7 36 81 23 -24 33 hhcurveto
          30 16 25 23 48 -40 12 -74 -87 -129 -63 -142 -6 hvcurveto
          37 callsubr
          endchar
        </CharString>
        <CharString name="five">
          -66 -10 58 298 63 163 76 hstem
          74 58 233 93 vstem
          103 409 rmoveto
          163 293 76 -351 -302 101 vlineto
          145 45 -54 -92 -92 -35 -60 -100 -64 -34 18 6 -13 hvcurveto
          -9 96 rlineto
          -54 hlineto
          -7 -136 rlineto
          -23 38 57 -19 83 hhcurveto
          147 84 89 136 133 -80 61 -185 hvcurveto
          endchar
        </CharString>
        <CharString name="five.osf">
          -68 -166 48 334 58 169 76 hstemhm
          297 94 -68 44 hintmask 11110000
          102 -166 rmoveto
          173 116 93 151 167 -174 29 -111 hvcurveto
          13 169 rlineto
          hintmask 11101000
          248 114 -44 hlineto
          -11 -38 rlineto
          -243 hlineto
          -26 -303 rlineto
          hintmask 11110000
          161 93 -40 -128 -105 -73 -61 -199 hvcurveto
          -41 vlineto
          0 27 -7 50 vhcurveto
          endchar
        </CharString>
        <CharString name="fl">
          83 0 41 396 57 136 71 hstem
          96 82 224 82 vstem
          27 41 rmoveto
          3 callsubr
          118 vlineto
          15 25 51 3 24 hhcurveto
          43 51 -5 -12 30 hvcurveto
          -558 vlineto
          -80 -14 rlineto
          -41 241 65 callgsubr
          609 vlineto
          0 -51 37 -106 -147 -85 -73 -132 vhcurveto
          37 callsubr
          endchar
        </CharString>
        <CharString name="florin">
          -79 -126 74 455 57 126 74 hstem
          152.5 82 154.5 38 vstem
          162 403 rmoveto
          -19 -377 rlineto
          -38 -3 -11 -40 -47 hhcurveto
          -29 -25 10 7 -18 hvcurveto
          0 -38 -5 -38 vvcurveto
          -39 27 -9 50 116 55 87 113 8 vhcurveto
          13 329 rlineto
          109 hlineto
          8 57 rlineto
          -112 hlineto
          6 63 rlineto
          38 6 12 25 47 hhcurveto
          29 25 -10 -7 18 hvcurveto
          0 38 5 38 vvcurveto
          39 -27 9 -50 -116 -56 -87 -113 -7 vhcurveto
          -82 -17 -5 -40 rlineto
          endchar
        </CharString>
        <CharString name="four">
          -25 0 244 -63 63 432 -20 hstemhm
          279 82 hintmask 10110000
          289 59 rmoveto
          -83 -15 rlineto
          -44 248 35 callsubr
          hintmask 01110000
          122 92 vlineto
          hintmask 10110000
          63 -92 410 vlineto
          -51 22 -324 -448 rlineto
          hintmask 01110000
          25 -47 rlineto
          268 hlineto
          361 vmoveto
          hintmask 10110000
          -298 -203 vlineto
          -3 6 197 275 rlineto
          endchar
        </CharString>
        <CharString name="four.osf">
          2 31 62 hstem
          303 78 vstem
          10 84 rmoveto
          24 -53 rlineto
          269 -195 78 195 92 62 -92 420 hlineto
          -51 21 rlineto
          -27 -441 rmoveto
          -215 7 hlineto
          215 299 rlineto
          endchar
        </CharString>
        <CharString name="fraction">
          -103 10 -21 670 -20 hstem
          -65 536 vstem
          422 691 rmoveto
          4 callsubr
          endchar
        </CharString>
        <CharString name="g">
          -31 callsubr
          hintmask 0000000000000000
          hintmask 1101001010000000
          306 108 -99 callgsubr
        </CharString>
        <CharString name="g_tilde.loclGUA">
          55 callsubr
          153 -20 hstemhm
          22 83 -66 83 -6 84 119 81 -24 77 hintmask 1101101010000000
          91 647 -101 callgsubr
          hintmask 1101100101000000
          215 -539 rmoveto
          -106 21 rlineto
          56 13 vlineto
          hintmask 1110101010000000
          -79 callsubr
          hintmask 1101101010000000
          -53 callsubr
          hintmask 1101100110000000
          -33 callgsubr
          hintmask 1101110001000000
          -49 callsubr
          hintmask 1101100101000000
          72 -59 27 -88 17 vhcurveto
          hintmask 1101101010000000
          -66 callgsubr
          hintmask 1101110001000000
          -75 callgsubr
        </CharString>
        <CharString name="gbreve">
          -41 -166 52 299 58 199 73 -69 58 49 65 hstemhm
          22 83 -66 83 -54 51 -3 84 119 81 -64 34 6 77 hintmask 0000000000000000
          hintmask 1101100100100000
          119 706 -97 callsubr
          hintmask 1101100010010000
          187 -598 rmoveto
          -106 21 rlineto
          56 13 vlineto
          hintmask 1110101001000000
          -79 callsubr
          hintmask 1101101001000000
          -53 callsubr
          hintmask 1101100011000000
          -33 callgsubr
          hintmask 1101110000010000
          -49 callsubr
          hintmask 1101100010010000
          72 -59 27 -88 17 vhcurveto
          hintmask 1101101001000000
          -66 callgsubr
          hintmask 1101110000010000
          -75 callgsubr
        </CharString>
        <CharString name="gcaron">
          -31 callsubr
          hintmask 1101010100000000
          83 673 rmoveto
          -91 callsubr
          hintmask 1101001010000000
          189 -600 -99 callgsubr
        </CharString>
        <CharString name="gcircumflex">
          -31 callsubr
          hintmask 1101010100000000
          83 577 -103 callgsubr
          hintmask 1101001010000000
          117 -575 -99 callgsubr
        </CharString>
        <CharString name="gcommaaccent">
          -41 -166 52 299 58 199 73 -69 58 hstemhm
          22 83 -66 83 -6 84 2 67 50 81 -24 77 hintmask 1101010110000000
          212 724 rmoveto
          -31 hlineto
          10 -29 11 -41 -28 vvcurveto
          -25 -12 -19 -14 -13 vhcurveto
          -16 14 18 -6 13 hhcurveto
          35 13 28 24 67 -57 58 0 hvcurveto
          hintmask 1101001001000000
          94 -616 rmoveto
          -106 21 rlineto
          56 13 vlineto
          hintmask 1110010110000000
          -79 callsubr
          hintmask 1101010110000000
          -53 callsubr
          hintmask 1101001010000000
          -33 callgsubr
          hintmask 1101100101000000
          -49 callsubr
          hintmask 1101001001000000
          72 -59 27 -88 17 vhcurveto
          hintmask 1101010110000000
          -66 callgsubr
          hintmask 1101100101000000
          -75 callgsubr
        </CharString>
        <CharString name="gdotaccent">
          55 callsubr
          64 128 hstemhm
          22 83 -66 83 -6 84 -28 117 30 81 -24 77 hintmask 0000000000000000
          hintmask 1101101010100000
          228 -80 callsubr
          78 -460 rmoveto
          hintmask 1110000101000000
          -106 21 rlineto
          56 13 vlineto
          -79 callsubr
          hintmask 1101001001000000
          -53 callsubr
          hintmask 1101000101000000
          -33 callgsubr
          hintmask 1101010000100000
          -49 callsubr
          hintmask 1101101010100000
          72 -59 27 -88 17 vhcurveto
          hintmask 1101001001000000
          -66 callgsubr
          hintmask 1101010000100000
          -75 callgsubr
        </CharString>
        <CharString name="germandbls">
          97 -9 55 -46 41 -41 152 285 47 -47 59 0 -20 161 64 hstemhm
          96 82 79 77 70 83 -8 78 hintmask 1000011110100000
          334 344 rmoveto
          60 75 21 40 41 vhcurveto
          hintmask 1000011111000000
          22 23 16 31 41 vvcurveto
          90 -77 50 -102 -122 -91 -72 -133 vhcurveto
          hintmask 1001001110100000
          -60 -12 rlineto
          hintmask 0100101111000000
          -47 61 -382 vlineto
          -69 -14 rlineto
          -41 151 527 vlineto
          69 39 41 85 77 25 -34 -41 -41 -24 -20 -34 -26 vhcurveto
          -38 -29 -51 -30 -82 vvcurveto
          -95 67 -16 55 -16 vhcurveto
          hintmask 1000011110100000
          72 -20 28 -11 -49 vvcurveto
          -40 -20 -41 -69 -42 -24 15 13 -13 vhcurveto
          hintmask 0010011110100000
          -14 78 rlineto
          -41 hlineto
          hintmask 1000011110100000
          -12 -122 rlineto
          -13 16 56 -26 70 hhcurveto
          88 83 42 106 91 -62 25 -75 22 hvcurveto
          -48 14 -38 10 43 vvcurveto
          endchar
        </CharString>
        <CharString name="grave">
          -305 655 -20 hstem
          0 202 vstem
          655 vmoveto
          -89 callsubr
          endchar
        </CharString>
        <CharString name="gravecomb">
          655 -20 hstem
          -202 202 vstem
          -202 655 rmoveto
          -89 callsubr
          endchar
        </CharString>
        <CharString name="gravecomb.case">
          55 callgsubr
          767 -87 callgsubr
          endchar
        </CharString>
        <CharString name="greater">
          23 21 -21 502 -20 hstem
          31 467 vstem
          31 65 rmoveto
          31 -65 436 216 rlineto
          62 vlineto
          -435 224 -32 -66 383 -187 rlineto
          endchar
        </CharString>
        <CharString name="greaterequal">
          23 -32 63 hstem
          30 466 vstem
          30 109 rmoveto
          30 -57 436 216 rlineto
          62 vlineto
          -435 218 -27 -56 389 -194 rlineto
          -385 -267 rmoveto
          -63 457 63 vlineto
          endchar
        </CharString>
        <CharString name="guillemotleft">
          -128 71 346 hstem
          39 317 vstem
          87 175 rmoveto
          -18 callgsubr
          151 hmoveto
          -18 callgsubr
          endchar
        </CharString>
        <CharString name="guillemotright">
          -128 71 346 hstem
          23 317 vstem
          107 245 -17 callsubr
          235 -156 -17 callsubr
          endchar
        </CharString>
        <CharString name="guilsinglleft">
          -279 71 346 hstem
          39 166 vstem
          87 175 rmoveto
          -18 callgsubr
          endchar
        </CharString>
        <CharString name="guilsinglright">
          -279 71 346 hstem
          23 166 vstem
          107 245 -17 callsubr
          endchar
        </CharString>
        <CharString name="h">
          68 0 41 393 70 hstem
          105 82 206 82 vstem
          24 41 -58 callgsubr
          endchar
        </CharString>
        <CharString name="hbar">
          68 0 41 393 70 48 48 hstem
          105 82 206 82 vstem
          475 55 rmoveto
          312 vlineto
          102 -63 35 -68 -78 -79 -51 0 vhcurveto
          99 137 48 -137 85 vlineto
          -28 14 -136 -17 rlineto
          -39 vlineto
          82 -13 rlineto
          -30 -82 -48 82 -497 vlineto
          -81 -14 rlineto
          -41 242 65 callgsubr
          366 vlineto
          0 56 13 45 67 38 -19 -62 vhcurveto
          -298 vlineto
          -78 -23 callgsubr
          endchar
        </CharString>
        <CharString name="hcircumflex">
          68 0 41 393 70 hstem
          105 82 206 82 vstem
          -2 731 -103 callgsubr
          -80 -796 -58 callgsubr
          endchar
        </CharString>
        <CharString name="hookabovecomb">
          670 54 hstemhm
          -164 56 17 68 hintmask 00000000
          hintmask 11100000
          -155 536 rmoveto
          -59 callsubr
          hintmask 10100000
          17 callgsubr
          68 callsubr
          hintmask 11100000
          -66 callsubr
          endchar
        </CharString>
        <CharString name="hookabovecomb.case">
          785 54 hstemhm
          -164 56 17 68 hintmask 00000000
          hintmask 11100000
          -159 677 -45 callgsubr
          hintmask 10100000
          38 12 20 23 31 vvcurveto
          46 -50 24 -98 callsubr
          -7 -13 -14 -9 -10 -26 -10 hvcurveto
          hintmask 11100000
          -60 callgsubr
          endchar
        </CharString>
        <CharString name="hungarumlaut">
          -188 536 184 hstem
          0 319 vstem
          58 -68 callgsubr
          endchar
        </CharString>
        <CharString name="hyphen">
          18 callsubr
        </CharString>
        <CharString name="i">
          -214 0 62 callsubr
          -92 82 hintmask 00000000
          hintmask 11110000
          139 -80 callsubr
          -111 -527 rmoveto
          -41 vlineto
          hintmask 11101000
          240 41 hlineto
          -85 callgsubr
          endchar
        </CharString>
        <CharString name="i.loclTRK">
          -214 0 52 callsubr
          90 117 -99 82 hintmask 00000000
          hintmask 11110000
          146 -80 callsubr
          -118 -527 rmoveto
          -41 vlineto
          hintmask 11101000
          240 41 hlineto
          -85 callgsubr
          endchar
        </CharString>
        <CharString name="iacute">
          -24 callgsubr
          42 callgsubr
          38 565 -99 callsubr
          -119 -645 rmoveto
          -52 callgsubr
          -85 callgsubr
          endchar
        </CharString>
        <CharString name="iacute_j.loclNLD">
          45 11 callsubr
          41 453 -20 hstemhm
          108 82 198 82 hintmask 01111100
          98 565 -99 callsubr
          171 -121 -99 callsubr
          -459 -645 rmoveto
          -52 callgsubr
          -85 callgsubr
          172 -172 -68 callsubr
          hintmask 10111100
          59 callgsubr
        </CharString>
        <CharString name="ibreve">
          -24 callgsubr
          79 65 hstem
          -2 51 59 82 76 34 vstem
          49 706 -97 callsubr
          -21 -665 rmoveto
          -52 callgsubr
          -85 callgsubr
          endchar
        </CharString>
        <CharString name="icircumflex">
          -24 callgsubr
          42 callgsubr
          -15 584 rmoveto
          25 -28 108 76 99 -78 32 32 -70 81 rlineto
          19 -16 -28 33 -14 hhcurveto
          -14 -32 -36 -16 -14 hvcurveto
          -33 -626 rmoveto
          -52 callgsubr
          -85 callgsubr
          endchar
        </CharString>
        <CharString name="idieresis">
          -24 callgsubr
          99 116 hstemhm
          -13 106 15 82 -32 106 hintmask 00000000
          hintmask 11110100
          38 573 rmoveto
          35 20 29 33 33 -20 21 -31 -33 -22 -28 -32 -33 20 -23 31 hvcurveto
          171 hmoveto
          35 20 29 33 33 -20 21 -31 -33 -22 -28 -32 -33 20 -23 31 hvcurveto
          -181 -532 rmoveto
          -41 vlineto
          hintmask 11101000
          240 41 hlineto
          -85 callgsubr
          endchar
        </CharString>
        <CharString name="igrave">
          -24 callgsubr
          181 -20 42 callgsubr
          14 655 rmoveto
          -89 callsubr
          14 -614 rmoveto
          -52 callgsubr
          -85 callgsubr
          endchar
        </CharString>
        <CharString name="ij">
          45 45 callsubr
          83 117 -92 82 169 117 -88 82 hintmask 0000000000000000
          hintmask 0111110100000000
          139 -80 callsubr
          276 hmoveto
          39 22 32 36 37 -22 23 -34 -36 -25 -31 -35 -37 22 -25 34 hvcurveto
          -387 -527 rmoveto
          -41 vlineto
          hintmask 0111101010000000
          240 41 hlineto
          -85 callgsubr
          172 -172 -68 callsubr
          hintmask 1011101010000000
          59 callgsubr
        </CharString>
        <CharString name="imacron">
          -24 callgsubr
          132 60 42 callgsubr
          -16 666 rmoveto
          -8 -60 rlineto
          276 hlineto
          8 60 rlineto
          -232 -625 rmoveto
          -52 callgsubr
          -85 callgsubr
          endchar
        </CharString>
        <CharString name="infinity">
          293 127 69 231 67 hstem
          40 72 576 72 vstem
          400 247 rmoveto
          -90 67 50 -30 70 hhcurveto
          97 76 71 112 112 -76 72 -97 -70 -48 -29 -91 -69 hvcurveto
          91 -69 -48 29 -70 hhcurveto
          -97 -76 -72 -112 -112 76 -71 97 70 50 30 90 67 hvcurveto
          -44 63 rmoveto
          -57 -39 -46 -57 -58 hhcurveto
          -55 -46 42 72 72 37 45 64 64 43 -62 -55 36 hvcurveto
          88 hmoveto
          55 36 43 62 64 hhcurveto
          64 37 -45 -72 -72 -46 -42 -55 -58 -46 57 57 -39 hvcurveto
          endchar
        </CharString>
        <CharString name="integral">
          -171 -162 71 733 71 hstem
          129 73 vstem
          129 538 rmoveto
          -582 vlineto
          -28 -7 -19 -25 vhcurveto
          -47 -10 22 -18 hhcurveto
          -10 -10 -11 -12 -25 vvcurveto
          -26 31 -20 37 78 55 83 92 vhcurveto
          582 vlineto
          28 7 19 25 vhcurveto
          47 10 -22 18 hhcurveto
          10 10 11 12 25 vvcurveto
          26 -31 20 -37 -78 -55 -83 -92 vhcurveto
          endchar
        </CharString>
        <CharString name="iogonek">
          -214 -187 60 127 41 -41 55 439 -20 94 128 hstemhm
          84 117 -93 82 -67 66 hintmask 00000000
          hintmask 11011100
          140 -80 callsubr
          hintmask 11011001
          -112 -527 rmoveto
          -41 170 vlineto
          -39 -24 -36 -38 -51 -59 callgsubr
          34 33 31 23 18 hvcurveto
          hintmask 11011010
          23 41 hlineto
          hintmask 10111010
          -85 callgsubr
          endchar
        </CharString>
        <CharString name="itilde">
          -24 callgsubr
          183 -20 42 callgsubr
          9 647 -101 callgsubr
          19 -606 rmoveto
          -52 callgsubr
          -85 callgsubr
          endchar
        </CharString>
        <CharString name="j">
          41 callgsubr
          94 128 hstemhm
          66 117 -88 82 hintmask 00000000
          hintmask 01111000
          122 -80 callsubr
          -135 -685 rmoveto
          -38 vlineto
          0 35 -10 48 vhcurveto
          hintmask 01110100
          70 37 30 52 hvcurveto
          568 vlineto
          -79 callgsubr
          hintmask 10110100
          59 callgsubr
        </CharString>
        <CharString name="jcircumflex">
          41 callgsubr
          hstemhm
          95 82 hintmask 01110000
          -12 577 -103 callgsubr
          -107 -800 -68 callsubr
          hintmask 10110000
          59 callgsubr
        </CharString>
        <CharString name="k">
          -18 28 callsubr
          99 82 103 57 callsubr
          hintmask 11110100
          19 -55 callsubr
          395 hlineto
          -62 callsubr
          endchar
        </CharString>
        <CharString name="k.001">
          -18 28 callsubr
          99 82 103 57 callsubr
          hintmask 11110100
          19 -55 callsubr
          395 hlineto
          -62 callsubr
          endchar
        </CharString>
        <CharString name="kcommaaccent">
          -18 28 callsubr
          99 82 70 67 -34 57 callsubr
          hintmask 11110010
          19 21 callsubr
          187 52 vlineto
          113 -199 rlineto
          4 -6 3 -8 -11 vvcurveto
          -18 162 41 vlineto
          -82 18 -133 230 rlineto
          hintmask 11110100
          116 148 60 16 rlineto
          41 -192 -40 vlineto
          59 -13 rlineto
          -14 vlineto
          -106 -132 rlineto
          -56 395 hlineto
          -62 callsubr
          hintmask 11111010
          135 -242 rmoveto
          -93 callsubr
        </CharString>
        <CharString name="kgreenlandic">
          -11 28 callsubr
          106 82 103 57 callsubr
          hintmask 11110100
          26 -55 callsubr
          190 hlineto
          -79 callgsubr
          -356 vlineto
          endchar
        </CharString>
        <CharString name="l">
          -224 0 41 hstem
          99 82 vstem
          -19 callsubr
          endchar
        </CharString>
        <CharString name="lacute">
          -224 0 41 hstem
          99 82 vstem
          1 718 -98 callgsubr
          -113 -775 -56 callsubr
          endchar
        </CharString>
        <CharString name="lcaron">
          -216 0 41 501 177 hstem
          99 82 67 70 vstem
          232 -56 callgsubr
          -213 -501 -56 callsubr
          endchar
        </CharString>
        <CharString name="lcommaaccent">
          -224 0 41 hstemhm
          99 82 -65 67 hintmask 11000000
          -19 callsubr
          hintmask 10100000
          -242 vmoveto
          -93 callsubr
        </CharString>
        <CharString name="ldot">
          -224 0 41 254 130 hstem
          99 82 37 119 vstem
          -19 callsubr
          176 240 rmoveto
          -63 callgsubr
          endchar
        </CharString>
        <CharString name="less">
          23 21 -21 502 -20 hstem
          32 467 vstem
          32 278 rmoveto
          -62 vlineto
          436 -216 31 65 -383 184 383 187 -32 66 rlineto
          endchar
        </CharString>
        <CharString name="lessequal">
          23 -32 63 hstem
          470 22 vstem
          34 330 rmoveto
          -62 vlineto
          436 -216 30 57 -393 189 389 194 -27 56 rlineto
          -434 -517 rmoveto
          -63 457 63 vlineto
          endchar
        </CharString>
        <CharString name="logicalnot">
          23 304 60 hstem
          409 53 vstem
          40 364 rmoveto
          -60 369 -182 53 242 vlineto
          endchar
        </CharString>
        <CharString name="longs">
          -207 0 41 396 47 -47 59 0 -20 154 71 hstemhm
          84 82 hintmask 10011100
          15 41 rmoveto
          -41 255 41 vlineto
          -104 16 rlineto
          564 vlineto
          -32 callsubr
          58 callgsubr
          vhcurveto
          hintmask 11001100
          -60 -12 rlineto
          hintmask 10101100
          -47 61 -382 vlineto
          endchar
        </CharString>
        <CharString name="lozenge">
          23 0 71 -50 -21 568 81 0 -20 hstemhm
          62 406 hintmask 01011000
          62 330 rmoveto
          171 -330 rlineto
          62 hlineto
          173 330 -173 319 rlineto
          -62 hlineto
          154 -321 rmoveto
          hintmask 10101000
          -120 -257 -125 258 122 239 rlineto
          endchar
        </CharString>
        <CharString name="lslash">
          -224 0 41 hstem
          99 82 vstem
          19 21 callsubr
          279 vlineto
          103 37 rlineto
          63 vlineto
          -103 -39 rlineto
          295 vlineto
          -23 9 -139 -22 rlineto
          -41 vlineto
          80 -14 rlineto
          -257 vlineto
          -100 -37 rlineto
          -59 vlineto
          100 36 rlineto
          -250 vlineto
          endchar
        </CharString>
        <CharString name="m">
          341 0 41 -41 55 379 70 -10 -20 hstemhm
          106 82 197 82 199 82 hintmask 10101110
          26 41 rmoveto
          -41 241 41 vlineto
          hintmask 01101110
          -79 14 rlineto
          365 vlineto
          0 57 14 43 67 30 -19 -62 vhcurveto
          -298 vlineto
          hintmask 10101110
          -65 -15 rlineto
          -40 210 vlineto
          hintmask 01101110
          40 vlineto
          -63 15 rlineto
          366 vlineto
          0 58 13 43 66 32 -19 -62 vhcurveto
          -298 vlineto
          hintmask 10101110
          -78 -23 callgsubr
          hintmask 01101110
          -80 14 rlineto
          321 vlineto
          88 -71 40 -58 -88 -68 -45 -9 -12 vhcurveto
          35 -23 -49 19 -40 hhcurveto
          -73 -78 -51 0 hvcurveto
          hintmask 01011110
          -27 41 -135 -28 -31 callgsubr
          80 -16 rlineto
          -357 vlineto
          endchar
        </CharString>
        <CharString name="macron">
          -164 606 57 hstem
          0 342 vstem
          10 -41 callsubr
          endchar
        </CharString>
        <CharString name="minus">
          23 239 63 hstem
          67 395 vstem
          67 302 rmoveto
          -63 395 63 vlineto
          endchar
        </CharString>
        <CharString name="multiply">
          23 90 360 hstem
          86 359 vstem
          86 138 rmoveto
          47 -48 133 133 132 -133 46 46 -131 133 132 132 -50 49 -132 -133 -131 133 -46 -46 132 -133 rlineto
          endchar
        </CharString>
        <CharString name="n">
          69 0 8 callgsubr
          hstemhm
          106 82 206 82 hintmask 11011000
          26 41 -89 callgsubr
          hintmask 10111000
          -53 callgsubr
          endchar
        </CharString>
        <CharString name="nacute">
          69 0 8 callgsubr
          hstemhm
          102 82 206 82 hintmask 11011000
          199 565 -99 callsubr
          -286 -645 -89 callgsubr
          hintmask 10111000
          -53 callgsubr
          endchar
        </CharString>
        <CharString name="nacute.loclPLK">
          69 0 8 callgsubr
          hstemhm
          106 82 206 82 hintmask 11011000
          255 -41 callgsubr
          -310 -644 -89 callgsubr
          hintmask 10111000
          -53 callgsubr
          endchar
        </CharString>
        <CharString name="napostrophe">
          93 0 8 callgsubr
          68 177 hstemhm
          35 70 1 82 206 82 hintmask 00000000
          hintmask 11011010
          19 -56 callgsubr
          7 -501 rmoveto
          -41 vlineto
          hintmask 11000110
          240 41 hlineto
          -78 14 rlineto
          367 -50 callgsubr
          -298 vlineto
          -78 -23 callgsubr
          -80 14 rlineto
          312 vlineto
          102 -63 35 -68 26 callsubr
          vhcurveto
          hintmask 10100110
          -53 callgsubr
          endchar
        </CharString>
        <CharString name="ncaron">
          69 0 8 callgsubr
          hstemhm
          102 82 206 82 hintmask 11011000
          133 673 rmoveto
          -91 callsubr
          -145 -667 -89 callgsubr
          hintmask 10111000
          -53 callgsubr
          endchar
        </CharString>
        <CharString name="ncommaaccent">
          69 0 8 callgsubr
          hstemhm
          102 82 88 67 51 82 hintmask 11010100
          22 41 -89 callgsubr
          hintmask 10111100
          -53 callgsubr
          153 -242 rmoveto
          -93 callsubr
        </CharString>
        <CharString name="nine">
          -22 -5 45 218 68 276 58 hstem
          33 92 246 94 vstem
          234 660 rmoveto
          -112 -98 -67 -152 -116 76 -67 106 101 55 49 0 hvcurveto
          -195 -4 -67 -72 -215 hhcurveto
          -40 vlineto
          0 23 -5 55 184 118 109 247 228 -73 81 -149 vhcurveto
          -4 -58 rmoveto
          128 4 -118 -134 hvcurveto
          -2 -6 -47 -22 -58 hhcurveto
          -64 -71 26 98 96 23 56 91 hvcurveto
          endchar
        </CharString>
        <CharString name="nine.osf">
          -18 -166 47 232 69 291 58 hstem
          27 91 228 96 vstem
          74 -119 rmoveto
          -40 vlineto
          0 23 -7 55 151 139 130 247 236 -76 84 -139 -104 -96 -64 -161 -116 67 -77 106 100 46 50 0 vhcurveto
          -196 -4 -84 -86 -184 hhcurveto
          44 426 rmoveto
          94 14 72 92 107 15 -100 -167 0 -39 -24 -63 -63 -63 25 100 vhcurveto
          endchar
        </CharString>
        <CharString name="notequal">
          23 12 -21 167 60 99 60 hstem
          63 400 vstem
          177 158 rmoveto
          -87 -134 52 -33 107 167 rlineto
          214 60 -175 hlineto
          64 99 rlineto
          111 60 -73 hlineto
          70 108 -49 32 -92 -140 rlineto
          -256 -60 217 hlineto
          -64 -99 rlineto
          -153 -60 hlineto
          endchar
        </CharString>
        <CharString name="ntilde">
          69 0 8 callgsubr
          176 -20 hstemhm
          102 82 206 82 hintmask 11011100
          138 654 -101 callgsubr
          -116 -613 -89 callgsubr
          hintmask 10111100
          -53 callgsubr
          endchar
        </CharString>
        <CharString name="numbersign">
          23 124 59 136 59 hstem
          -2 513 vstem
          106 124 rmoveto
          67 callgsubr
          134 hlineto
          67 callgsubr
          128 59 -117 hlineto
          26 136 rlineto
          114 59 -102 50 callsubr
          50 callsubr
          -59 122 hlineto
          -26 -136 rlineto
          -119 -59 hlineto
          313 59 rmoveto
          -134 hlineto
          26 136 rlineto
          134 hlineto
          endchar
        </CharString>
        <CharString name="o">
          -30 callsubr
          236 -9 -106 callsubr
          endchar
        </CharString>
        <CharString name="oacute">
          14 -29 callsubr
          hstem
          40 28 callgsubr
          vstem
          181 565 -99 callsubr
          -39 -695 -106 callsubr
          endchar
        </CharString>
        <CharString name="oacute.loclPLK">
          -30 callsubr
          216 -41 callgsubr
          -61 -694 -106 callsubr
          endchar
        </CharString>
        <CharString name="obreve">
          -10 -29 callsubr
          49 65 hstemhm
          25 90 -17 51 217 34 -21 90 hintmask 00000000
          hintmask 11101100
          149 706 -97 callsubr
          hintmask 11110010
          87 -715 -106 callsubr
          endchar
        </CharString>
        <CharString name="ocircumflex">
          14 -29 callsubr
          hstem
          40 28 callgsubr
          vstem
          115 577 -103 callgsubr
          30 -692 -106 callsubr
          endchar
        </CharString>
        <CharString name="odieresis">
          14 -29 callsubr
          71 116 hstemhm
          40 90 -26 106 105 106 -27 90 hintmask 00000000
          hintmask 11101100
          155 575 -104 callgsubr
          hintmask 11010010
          -115 -584 -106 callsubr
          endchar
        </CharString>
        <CharString name="oe">
          320 -9 58 -58 70 172 50 163 58 hstemhm
          43 28 callgsubr
          218 81 hintmask 10111110
          778 57 rmoveto
          hintmask 01111110
          -50 callsubr
          -24 callsubr
          vhcurveto
          251 hlineto
          37 11 17 72 92 -47 90 -117 -71 -61 -34 -56 -40 hvcurveto
          57 -35 -59 33 -84 52 callgsubr
          hvcurveto
          hintmask 10111110
          -151 73 -98 138 82 62 35 57 39 vhcurveto
          -56 34 59 -36 84 hhcurveto
          103 61 66 0 hvcurveto
          -505 -8 rmoveto
          -108 -32 77 119 128 21 73 112 99 32 -65 -136 -123 -29 -73 -95 hvcurveto
          429 238 21 callgsubr
        </CharString>
        <CharString name="ogonek">
          -323 -187 60 hstem
          0 66 vstem
          184 -136 rmoveto
          0 callsubr
        </CharString>
        <CharString name="ograve">
          14 -29 callsubr
          151 -20 hstem
          40 28 callgsubr
          vstem
          149 655 rmoveto
          -89 callsubr
          102 -664 -106 callsubr
          endchar
        </CharString>
        <CharString name="ohorn">
          -10 -29 callsubr
          37 callgsubr
          hintmask 00000000
          hintmask 11111000
          545 500 -77 callsubr
          hintmask 11110000
          -20 callsubr
          hintmask 11111000
          38 callgsubr
          hintmask 11110000
          -61 callsubr
          endchar
        </CharString>
        <CharString name="ohungarumlaut">
          14 -29 callsubr
          hstem
          40 28 callgsubr
          vstem
          199 -68 callgsubr
          -109 -678 -106 callsubr
          endchar
        </CharString>
        <CharString name="omacron">
          14 -29 callsubr
          102 57 hstem
          40 28 callgsubr
          vstem
          108 -41 callsubr
          -189 -672 -106 callsubr
          endchar
        </CharString>
        <CharString name="one">
          -117 21 -21 658 -20 hstem
          31 210 vstem
          210 658 rmoveto
          -166 -30 rlineto
          -49 125 -519 vlineto
          -114 -11 rlineto
          -49 316 49 vlineto
          -117 11 rlineto
          598 vlineto
          endchar
        </CharString>
        <CharString name="one.osf">
          -124 0 54.5 386.5 80 hstem
          153 82 vstem
          49 49 rmoveto
          -49 293 49 vlineto
          -107 11 rlineto
          461 -41 vlineto
          -156 -30 rlineto
          -50 115 -381 vlineto
          endchar
        </CharString>
        <CharString name="onehalf">
          212 0 49 -39 -21 305 52 -35 42 247 51 8 -20 hstemhm
          95 68 256 40 124 75 -19 39 hintmask 1001101110000000
          543 691 rmoveto
          hintmask 0101011110000000
          4 callsubr
          -558 -308 rmoveto
          -40 190 40 vlineto
          -61 4 rlineto
          hintmask 1001101101000000
          56 callgsubr
          312 -318 38 callsubr
          hintmask 1010101110000000
          -1 callgsubr
        </CharString>
        <CharString name="onequarter">
          240 0 42 -33 -21 107 43 173 42 247 51 7 -20 hstemhm
          95 68 400 68 hintmask 10111011
          561 690 rmoveto
          hintmask 01110111
          4 callsubr
          -576 -307 rmoveto
          -40 190 40 vlineto
          -61 4 rlineto
          hintmask 10111011
          56 callgsubr
          407 -315 -7 callgsubr
        </CharString>
        <CharString name="ordfeminine">
          -131 355 50 254 48 hstem
          23 74 120 71 vstem
          217 554 rmoveto
          -79 -11 rlineto
          -68 -9 -47 -36 -57 vvcurveto
          -46 30 -40 70 57 37 32 0 vhcurveto
          -13 3 13 -17 32 hhcurveto
          37 37 14 0 hvcurveto
          26 vlineto
          -51 15 rlineto
          216 vlineto
          46 -40 33 -66 -37 -112 -29 -57 -21 11 -11 22 18 10 5 0 vhcurveto
          15 60 rlineto
          0 21 5 18 43 26 -17 -41 vhcurveto
          -85 vmoveto
          -100 vlineto
          0 -29 -11 -29 -41 -21 18 28 44 41 16 79 5 vhcurveto
          endchar
        </CharString>
        <CharString name="ordmasculine">
          -121 355 53 241 58 hstem
          30 73 178 73 vstem
          185 355 rmoveto
          112 57 88 98 100 -58 66 -99 -104 -63 -87 -95 -103 53 -67 102 hvcurveto
          13 53 rmoveto
          -74 -21 35 86 74 13 46 77 66 22 -33 -87 -79 -18 -42 -65 hvcurveto
          endchar
        </CharString>
        <CharString name="oslash">
          44 callgsubr
          hintmask 00000000
          hintmask 01101100
          132 23 -54 callgsubr
        </CharString>
        <CharString name="oslashacute">
          44 callgsubr
          hintmask 10101100
          200 565 -99 callsubr
          hintmask 01101100
          -177 -663 -54 callgsubr
        </CharString>
        <CharString name="otilde">
          14 -29 callsubr
          153 -20 hstem
          40 28 callgsubr
          vstem
          121 647 -101 callgsubr
          130 -656 -106 callsubr
          endchar
        </CharString>
        <CharString name="p">
          33 -165 42 -42 56 109 58 376 70 -10 -20 hstemhm
          94 82 234 90 hintmask 00000000
          hintmask 10110110
          25 -123 rmoveto
          hintmask 01110110
          -42 238 vlineto
          hintmask 10110110
          44 vlineto
          hintmask 01110110
          -87 12 rlineto
          143 vlineto
          -12 16 36 -22 53 hhcurveto
          119 100 88 188 161 -75 67 -110 -69 -52 -38 -16 -19 hvcurveto
          hintmask 01101110
          -12 44 -149 -28 rlineto
          -41 vlineto
          80 -14 rlineto
          -520 vlineto
          82 192 rmoveto
          hintmask 01110110
          336 vlineto
          8 26 31 7 46 hhcurveto
          97 34 -58 -128 -148 -53 -42 -82 hvcurveto
          hintmask 01101110
          -48 -36 16 9 -15 hvcurveto
          endchar
        </CharString>
        <CharString name="paragraph">
          133 -165 41 717 55 -41 41 hstemhm
          308 65 76 65 hintmask 11011000
          308 196 rmoveto
          -253 65 650 141 vlineto
          hintmask 10111000
          78 14 rlineto
          hintmask 11011000
          41 -284 vlineto
          -125 -101 -101 -125 -125 101 -101 125 hvcurveto
          -78 -320 rmoveto
          -41 149 vlineto
          103 32 68 55 hvcurveto
          590 -65 -569 vlineto
          -54 -10 -25 -76 -9 vhcurveto
          endchar
        </CharString>
        <CharString name="parenleft">
          -249 -151 850 hstem
          37 86 vstem
          240 -151 rmoveto
          18 42 rlineto
          -114 30 -21 109 249 vvcurveto
          223 13 123 121 33 vhcurveto
          -18 41 rlineto
          -169 -33 -33 -205 -182 vvcurveto
          -182 31 -214 172 -34 vhcurveto
          endchar
        </CharString>
        <CharString name="parenright">
          -249 658 -20 hstem
          135 86 vstem
          -109 vmoveto
          18 -42 rlineto
          172 34 31 214 182 vvcurveto
          182 -33 205 -169 33 vhcurveto
          -18 -41 rlineto
          121 -33 13 -123 -223 vvcurveto
          -249 -21 -109 -114 -30 vhcurveto
          endchar
        </CharString>
        <CharString name="partialdiff">
          23 -9 58 313 64 207 55 hstem
          41 90 268 87 vstem
          91 629 rmoveto
          20 -26 rlineto
          18 36 43 12 33 hhcurveto
          131 44 -124 -115 0 -47 32 -73 -131 -106 -82 -143 -118 70 -92 132 157 86 133 225 244 -108 95 -131 -99 -57 -59 0 hvcurveto
          308 -289 rmoveto
          -212 -48 -79 -99 -92 -29 84 79 98 41 52 110 78 39 -22 0 vhcurveto
          endchar
        </CharString>
        <CharString name="percent">
          177 48 callgsubr
          15 67 157 67 72 67 157 67 hintmask 1011111110000000
          542 667 rmoveto
          hintmask 0111111110000000
          -469 -679 52 -33 466 680 rlineto
          -435 -287 -38 callsubr
          hintmask 1011111110000000
          358 -407 -38 callsubr
          endchar
        </CharString>
        <CharString name="period">
          -316 -11 130 hstem
          37 119 vstem
          94 -11 rmoveto
          -63 callgsubr
          endchar
        </CharString>
        <CharString name="periodcentered">
          -316 198 130 hstem
          37 119 vstem
          94 198 rmoveto
          -63 callgsubr
          endchar
        </CharString>
        <CharString name="perthousand">
          486 48 callgsubr
          23 67 157 67 39 67 157 67 36 67 157 67 hintmask 1011111111100000
          534 690 rmoveto
          hintmask 0101111000000000
          4 callsubr
          -419 -310 -38 callsubr
          hintmask 1010000111100000
          325 -407 rmoveto
          111 39 65 91 95 -34 61 -106 -104 -47 -64 -94 -88 31 -66 110 hvcurveto
          327 hmoveto
          111 39 65 91 95 -34 61 -106 -104 -47 -64 -94 -88 31 -66 110 hvcurveto
          -322 51 rmoveto
          -66 -13 37 68 73 22 32 56 58 21 -22 -83 -70 -13 -35 -65 hvcurveto
          327 hmoveto
          -66 -13 37 68 73 22 32 56 58 21 -22 -83 -70 -13 -35 -65 hvcurveto
          endchar
        </CharString>
        <CharString name="pi">
          23 -4 70 -45 -21 427 67 hstemhm
          97 81 161 81 hintmask 00000000
          hintmask 01111000
          65 41 rmoveto
          -41 65 vlineto
          -1 49 43 76 hvcurveto
          308 161 vlineto
          hintmask 10111000
          -358 vlineto
          -45 8 -28 51 47 47 31 0 vhcurveto
          39 -72 361 vlineto
          22 27 4 19 23 hvcurveto
          47 39 -25 39 -90 -34 rlineto
          -318 hlineto
          -38 -27 -9 -25 -25 hvcurveto
          -43 -38 24 -36 100 41 rlineto
          hintmask 01111000
          -330 vlineto
          endchar
        </CharString>
        <CharString name="plus">
          23 240 59 hstem
          231 67 vstem
          231 240 31 callgsubr
          endchar
        </CharString>
        <CharString name="plusminus">
          23 -1 59 238 59 hstem
          230 67 vstem
          230 296 31 callgsubr
          -238 vmoveto
          -59 400 59 vlineto
          endchar
        </CharString>
        <CharString name="product">
          23 0 44 545 59 -44 44 hstemhm
          63 83 237 83 hintmask 11011000
          -20 44 rmoveto
          -44 249 35 callsubr
          530 237 -530 vlineto
          -83 -15 rlineto
          -44 249 35 callsubr
          530 vlineto
          hintmask 10111000
          83 15 rlineto
          hintmask 11011000
          44 -569 vlineto
          hintmask 10111000
          -44 vlineto
          hintmask 11011000
          83 -15 rlineto
          -530 vlineto
          endchar
        </CharString>
        <CharString name="q">
          11 -165 42 123 62 379 63 -10 -20 hstemhm
          40 89 235 82 hintmask 11101100
          290 -123 rmoveto
          -42 220 42 vlineto
          -64 14 rlineto
          hintmask 11011100
          603 -31 vlineto
          hintmask 11101100
          -40 -28 rlineto
          -5 hlineto
          13 -16 -37 25 -58 hhcurveto
          -98 -121 -82 -204 -161 87 -57 102 76 42 33 17 17 hvcurveto
          -159 vlineto
          534 vmoveto
          -334 vlineto
          -10 -18 -41 -19 -45 hhcurveto
          -96 -35 61 128 137 58 53 82 46 35 -10 -6 14 hvcurveto
          endchar
        </CharString>
        <CharString name="question">
          -146 -11 122 463 89 hstem
          57 112 86 76 vstem
          86 335 rmoveto
          6 -172 rlineto
          49 hlineto
          21 122 53 17 rlineto
          64 20 52 49 82 vvcurveto
          125 -81 85 -134 -72 -9 -20 -32 -17 11 -20 0 vhcurveto
          93 hlineto
          83 33 -6 -86 -68 -24 -26 -55 -20 hvcurveto
          -66 -379 32 callgsubr
        </CharString>
        <CharString name="questiondown">
          -145 -160 89 463 122 hstem
          31 76 80 112 vstem
          241 392 36 callgsubr
          75 -463 rmoveto
          -93 hlineto
          -83 -33 6 86 68 24 26 55 20 hvcurveto
          90 33 -6 172 rlineto
          -49 hlineto
          -21 -122 -53 -17 rlineto
          -64 -20 -52 -49 -82 vvcurveto
          -125 81 -85 134 72 9 20 32 17 -11 20 0 vhcurveto
          endchar
        </CharString>
        <CharString name="quotedbl">
          -173 494 224 hstem
          59 221 vstem
          59 705 rmoveto
          -14 callsubr
          133 hmoveto
          -14 callsubr
          endchar
        </CharString>
        <CharString name="quotedblbase">
          -160 -122 231 hstem
          77 83 67 83 vstem
          69 -122 -43 callsubr
          180 -14 -43 callsubr
          endchar
        </CharString>
        <CharString name="quotedblleft">
          -177 486 231 hstem
          30 83 67 83 vstem
          121 717 12 callgsubr
          120 14 12 callgsubr
          endchar
        </CharString>
        <CharString name="quotedblright">
          -177 500 -20 hstem
          65 83 67 83 vstem
          57 486 -43 callsubr
          180 -14 -43 callsubr
          endchar
        </CharString>
        <CharString name="quoteleft">
          -315 480 238 hstem
          42 95 vstem
          139 718 rmoveto
          -18 -18 -79 -89 -68 vvcurveto
          -35 21 -28 37 30 17 19 21 14 vhcurveto
          -12 16 -12 26 28 vvcurveto
          30 14 42 22 42 vhcurveto
          endchar
        </CharString>
        <CharString name="quoteright">
          -319 473 238 hstem
          59 95 vstem
          57 473 10 callgsubr
        </CharString>
        <CharString name="quotesinglbase">
          -315 -129 238 hstem
          63 95 vstem
          61 -129 10 callgsubr
        </CharString>
        <CharString name="quotesingle">
          -300 494 224 hstem
          59 88 vstem
          59 705 rmoveto
          -14 callsubr
          endchar
        </CharString>
        <CharString name="r">
          -148 19 callsubr
          30 41 -78 callgsubr
          endchar
        </CharString>
        <CharString name="racute">
          -166 19 callsubr
          89 565 -99 callsubr
          -168 -645 -78 callgsubr
          endchar
        </CharString>
        <CharString name="radical">
          23 16 -21 458 41 235 41 hstem
          34 581 vstem
          104 437 rmoveto
          159 -442 rlineto
          49 hlineto
          224 718 79 16 rlineto
          41 -117 vlineto
          -192 -640 -122 364 rlineto
          -150 -41 hlineto
          endchar
        </CharString>
        <CharString name="rcaron">
          -166 19 callsubr
          36 673 rmoveto
          -91 callsubr
          -40 -667 -78 callgsubr
          endchar
        </CharString>
        <CharString name="rcommaaccent">
          -166 -4 callsubr
          -54 67 hintmask 10011000
          30 41 -78 callgsubr
          hintmask 10010100
          11 -242 rmoveto
          -93 callsubr
        </CharString>
        <CharString name="registered">
          184 230 52 76 27.5 86.5 33 109 34 76 52 hstem
          58 58 109 64 85 68 104 58 vstem
          58 503 rmoveto
          -151 122 -122 151 151 122 122 151 151 -122 122 -151 -151 -122 -122 -151 vhcurveto
          273 -221 rmoveto
          -123 -92 99 122 122 92 99 123 122 93 -99 -122 -122 -93 -99 -122 hvcurveto
          -143 100 rmoveto
          -24 138 24 vlineto
          -37 7 rlineto
          83 28 vlineto
          65 -101 rlineto
          -10 5 11 -3 8 hhcurveto
          71 25 hlineto
          -36 9 -62 90 rlineto
          12 4 51 15 73 vvcurveto
          50 -44 24 -50 vhcurveto
          -160 -28 hlineto
          37 -6 rlineto
          -225 vlineto
          92 116 rmoveto
          -28 106 hlineto
          0 15 3 19 32 19 -7 -38 -39 -15 -25 -42 vhcurveto
          endchar
        </CharString>
        <CharString name="ring">
          -327 535 43 94 45 hstem
          -4 53 80 54 vstem
          -4 -38 callgsubr
          endchar
        </CharString>
        <CharString name="s">
          23 callsubr
          42 -36 callgsubr
          endchar
        </CharString>
        <CharString name="sacute">
          -101 -9 55 401 57 hstem
          29 77 185 78 vstem
          111 565 -99 callsubr
          -182 -534 -97 callgsubr
          endchar
        </CharString>
        <CharString name="sacute.loclPLK">
          23 callsubr
          174 -41 callgsubr
          -213 -533 -97 callgsubr
          endchar
        </CharString>
        <CharString name="scaron">
          -101 -9 55 401 57 hstem
          29 77 185 78 vstem
          51 673 rmoveto
          -91 callsubr
          -47 -556 -97 callgsubr
          endchar
        </CharString>
        <CharString name="scedilla">
          -101 -187 42 137 54 401 57 hstemhm
          29 77 125 68 -8 78 hintmask 11110100
          118 -34 callsubr
          hintmask 11111000
          40 callgsubr
          -17 4 rlineto
          21 vlineto
          hintmask 11110100
          87 6 72 39 109 192 -263 -78 114 vvcurveto
          50 24 23 73 39 43 -15 0 vhcurveto
          14 -80 rlineto
          41 hlineto
          14 125 rlineto
          10 -18 -62 17 -63 hhcurveto
          -102 -80 -46 -95 hvcurveto
          -192 262 88 -126 vvcurveto
          -50 -21 -37 -82 -45 -33 15 13 -17 vhcurveto
          -14 78 rlineto
          -41 hlineto
          -12 -122 rlineto
          hintmask 11111000
          16 -12 58 -22 65 -4 -21 -51 rcurveline
          -46 callgsubr
          vhcurveto
          hintmask 11110100
          41 callsubr
          hvcurveto
          endchar
        </CharString>
        <CharString name="scircumflex">
          23 callsubr
          59 577 -103 callgsubr
          -123 -531 -97 callgsubr
          endchar
        </CharString>
        <CharString name="scommaaccent">
          -101 -9 55 401 57 hstem
          29 77 74 67 44 78 vstem
          38 -36 callgsubr
          84 -339 rmoveto
          -93 callsubr
        </CharString>
        <CharString name="section">
          44 -166 58 739 65 hstemhm
          99 87 -85 54 243 81 -76 49 hintmask 11101000
          317 306 rmoveto
          139 -94 43 62 -149 106 rlineto
          -108 76 -56 32 57 vvcurveto
          67 27 19 74 vhcurveto
          hintmask 11100100
          61 36 -13 0 54 callgsubr
          49 147 hlineto
          10 -23 -70 15 -66 hhcurveto
          -132 -62 -63 -98 hvcurveto
          hintmask 11101000
          -105 106 -49 112 -75 vhcurveto
          hintmask 11011000
          -216 -271 rmoveto
          -153 vlineto
          -27 30 79 -21 73 hhcurveto
          102 94 53 113 81 -68 56 -111 70 hvcurveto
          -174 111 -43 -62 149 -101 rlineto
          80 -55 86 -46 -65 vvcurveto
          -69 -37 -28 -81 -55 -40 27 9 -11 vhcurveto
          -19 107 rlineto
          endchar
        </CharString>
        <CharString name="semicolon">
          -281 322 130 hstemhm
          57 119 -89 91 hintmask 00000000
          hintmask 11000000
          114 322 rmoveto
          -63 callgsubr
          hintmask 10100000
          -33 -451 9 callsubr
        </CharString>
        <CharString name="seven">
          -74 21 -21 572 76 hstem
          92 572 rmoveto
          274 -17 hlineto
          -277 -514 rlineto
          -41 75 vlineto
          274 572 rlineto
          76 -417 vlineto
          9 -155 rlineto
          54 hlineto
          endchar
        </CharString>
        <CharString name="seven.osf">
          -73 445 76 hstem
          24 62 267 64 vstem
          353 428 rmoveto
          -281 -592 rlineto
          96 hlineto
          249 609 rlineto
          76 -397 vlineto
          8 -155 rlineto
          54 hlineto
          8 79 rlineto
          263 hlineto
          endchar
        </CharString>
        <CharString name="six">
          5 -10 58 277 69 263 -20 hstem
          40 97 244 91 vstem
          253 -10 rmoveto
          117 107 70 154 94 -59 86 -116 -75 -54 -29 -21 -30 hvcurveto
          5 172 120 84 168 17 rrcurveto
          40 vlineto
          -255 -9 -136 -155 -239 vvcurveto
          -196 79 -68 129 vhcurveto
          -111 289 rmoveto
          26 vlineto
          6 19 48 14 53 hhcurveto
          60 64 -26 -99 -101 -37 -51 -82 -100 -25 73 158 hvcurveto
          endchar
        </CharString>
        <CharString name="six.osf">
          -9 -10 62 275 69 221 40 hstem
          41 95 239 90 vstem
          422 617 rmoveto
          40 vlineto
          -202 -179 -149 -266 -182 93 -70 121 105 105 63 161 94 -57 88 -106 -87 -72 -49 0 hvcurveto
          16 140 101 107 162 23 rrcurveto
          -284 -304 rmoveto
          3 6 55 11 58 hhcurveto
          55 63 -28 -86 -114 -28 -47 -87 -99 -25 49 163 11 1 27 1 11 hvcurveto
          endchar
        </CharString>
        <CharString name="slash">
          12 callsubr
        </CharString>
        <CharString name="space">
          -306 endchar
        </CharString>
        <CharString name="sterling">
          9 0 71 -71 178 136 57 226 61 hstemhm
          38 99 -29 81 212 59 callsubr
          435 54 callsubr
          -265 5 hlineto
          hintmask 10110110
          32 13 20 39 46 vvcurveto
          140 129 57 -129 95 vlineto
          97 27 34 78 32 38 -5 -8 14 vhcurveto
          23 -92 rlineto
          49 141 hlineto
          14 -35 -66 11 -49 hhcurveto
          -125 -67 -73 -119 hvcurveto
          -95 -69 -57 69 -140 vlineto
          hintmask 10110100
          -42 -32 -60 -38 -29 vhcurveto
          endchar
        </CharString>
        <CharString name="sterling.osf">
          -31 0 71 -71 178 56 57 179 61 hstemhm
          38 99 -29 81 177 59 callsubr
          400 54 callsubr
          -230 5 hlineto
          hintmask 10110110
          40 17 12 47 34 vvcurveto
          60 109 57 -109 48 vlineto
          65 1 66 87 47 23 -13 0 vhcurveto
          19 -92 rlineto
          49 141 hlineto
          0 -59 25 -71 -117 -60 -73 -119 vhcurveto
          -48 -69 -57 69 -60 vlineto
          hintmask 10110100
          -23 -14 -66 -56 -42 vhcurveto
          endchar
        </CharString>
        <CharString name="summation">
          23 0 72 -72 179 306 163 -55 55 hstemhm
          40 80 -80 97 271 49 -38 46 hintmask 10011001
          40 50 rmoveto
          -50 425 vlineto
          hintmask 01011001
          179 -46 vlineto
          hintmask 10011001
          -30 -107 rlineto
          -269 11 hlineto
          172 255 rlineto
          hintmask 10010110
          -155 247 rlineto
          8 239 vlineto
          hintmask 10101010
          32 -108 rlineto
          49 hlineto
          hintmask 10010110
          163 -417 -50 vlineto
          174 -285 rlineto
          endchar
        </CharString>
        <CharString name="t">
          -164 -4 68 378 53 hstem
          91 82 vstem
          91 442 rmoveto
          -335 vlineto
          -65 22 -46 86 vhcurveto
          57 -67 callsubr
          vlineto
          endchar
        </CharString>
        <CharString name="tbar">
          -204 -4 68 210 48 120 53 hstem
          91 82 vstem
          300 442 rmoveto
          14 25 rlineto
          28 -141 114 -58 vlineto
          -24 -104 -78 -21 rlineto
          -42 78 -120 -81 -48 81 -167 vlineto
          -65 22 -46 86 vhcurveto
          57 58 49 -1 hhcurveto
          -10 32 rlineto
          0 -42 -13 -38 -33 -17 8 42 vhcurveto
          160 122 48 -122 120 vlineto
          endchar
        </CharString>
        <CharString name="tcaron">
          -199 -4 68 378 53 47 67 hstem
          83 82 91 70 vstem
          240 -56 callgsubr
          -157 -100 rmoveto
          -335 vlineto
          -65 22 -46 86 vhcurveto
          57 -67 callsubr
          vlineto
          endchar
        </CharString>
        <CharString name="thorn">
          33 -165 42 -42 56 109 59 377 68 hstemhm
          94 82 234 90 hintmask 00000000
          hintmask 10111100
          25 -123 rmoveto
          hintmask 01111100
          -42 238 vlineto
          hintmask 10111100
          44 vlineto
          hintmask 01111100
          -87 12 rlineto
          146 vlineto
          -14 15 37 -23 61 hhcurveto
          113 98 88 188 161 -80 67 -105 -70 -50 -35 -16 -19 hvcurveto
          232 vlineto
          -27 14 -137 -27 rlineto
          -39 vlineto
          82 -13 rlineto
          -729 vlineto
          82 195 rmoveto
          335 vlineto
          8 26 31 7 46 hhcurveto
          97 34 -60 -128 -148 -51 -41 -82 -49 -37 18 9 -15 hvcurveto
          endchar
        </CharString>
        <CharString name="three">
          -65 -10 64 254 64 221 67 hstemhm
          336 83 -58 95 hintmask 11101000
          394 512 rmoveto
          85 -41 63 -152 -91 -58 -21 -10 -24 vhcurveto
          8 -137 rlineto
          51 hlineto
          9 85 rlineto
          0 35 16 60 94 26 -36 -71 -78 -77 -36 -73 vhcurveto
          -50 -36 hlineto
          15 -28 rlineto
          52 hlineto
          hintmask 11110000
          91 67 -23 -100 -96 -48 -35 -94 -46 -34 16 15 -25 hvcurveto
          -10 80 rlineto
          -52 hlineto
          -7 -129 rlineto
          -21 32 72 -25 69 hhcurveto
          142 96 65 138 111 -88 39 -61 14 hvcurveto
          53 20 59 49 86 vvcurveto
          endchar
        </CharString>
        <CharString name="three.osf">
          -48 -166 48 575 71 hstemhm
          114 144 19 89 -48 91 hintmask 11101000
          39 -118 rmoveto
          -41 vlineto
          -2 20 13 -5 43 hhcurveto
          152 142 70 164 103 -72 45 -79 10 hvcurveto
          9 vlineto
          hintmask 11110000
          47 23 61 52 78 vvcurveto
          63 -38 77 -127 -113 -68 -90 0 vhcurveto
          23 -26 rlineto
          0 54 45 76 67 37 -33 -52 -77 -63 -43 -100 -19 vhcurveto
          hintmask 11101000
          -28 vlineto
          19 -27 rlineto
          32 hlineto
          85 68 -40 -86 -138 -111 -32 -168 hvcurveto
          endchar
        </CharString>
        <CharString name="threequarters">
          172 0 42 -33 -21 107 43 167 48 116 45 -17 -20 132 48 hstemhm
          32 45 callgsubr
          241 68 hintmask 1011011100110000
          570 690 rmoveto
          hintmask 0111011100110000
          4 callsubr
          -585 -248 31 callsubr
          hintmask 1011011011010000
          8 callsubr
          vhcurveto
          hintmask 1011101101010000
          61 callgsubr
          hintmask 1011101100110000
          33 callgsubr
          387 -370 -7 callgsubr
        </CharString>
        <CharString name="tilde">
          -171 657 -20 hstem
          0 336 vstem
          28 647 -101 callgsubr
          endchar
        </CharString>
        <CharString name="tildecomb">
          657 -20 hstem
          -336 336 vstem
          -308 647 -101 callgsubr
          endchar
        </CharString>
        <CharString name="tildecomb.case">
          698 108 hstem
          -350 350 vstem
          -350 728 -101 callsubr
          endchar
        </CharString>
        <CharString name="trademark">
          350 361 33.5 259.5 45 -37.5 37.5 hstemhm
          139 77 188 48 258 77 hintmask 11011100
          96 391 rmoveto
          -30 164 30 vlineto
          -44 7 rlineto
          256 66 vlineto
          15 -58 rlineto
          39 103 -318 -103 39 hlineto
          15 58 rlineto
          67 -256 hlineto
          221 -9 rmoveto
          -28 135 28 vlineto
          -43 8 rlineto
          241 6 vlineto
          93 -277 rlineto
          56 hlineto
          hintmask 10111100
          97 275 rlineto
          6 -238 hlineto
          -43 -7 rlineto
          -30 164 30 vlineto
          -44 7 rlineto
          260 vlineto
          44 7 rlineto
          34 -157 vlineto
          -74 -216 -8 -39 -8 39 rlineto
          hintmask 11011100
          -71 216 rlineto
          -148 -34 hlineto
          39 -5 rlineto
          -263 vlineto
          endchar
        </CharString>
        <CharString name="two">
          -21 0 76 517 67 hstem
          358 93 vstem
          440 482 rmoveto
          127 -72 51 -147 -87 -65 -26 -11 -24 vhcurveto
          -144 50 vlineto
          16 95 rlineto
          7 14 34 12 62 hhcurveto
          99 27 -37 -80 -76 -42 -57 -90 -93 hvcurveto
          -186 -195 rlineto
          -55 437 163 -50 vlineto
          -20 -87 rlineto
          -259 6 hlineto
          115 114 rlineto
          139 137 49 65 84 vvcurveto
          endchar
        </CharString>
        <CharString name="two.osf">
          4 0 72 379 77 hstemhm
          44 108 168 94 11 44 hintmask 11110000
          44 58 rmoveto
          -58 vlineto
          hintmask 11111000
          425 144 -44 hlineto
          -20 -72 rlineto
          -253 6 hlineto
          70 53 rlineto
          hintmask 11110000
          102 77 90 65 104 vvcurveto
          95 -63 56 -109 -113 -83 -96 0 vhcurveto
          21 -25 rlineto
          0 57 44 82 85 29 -34 -53 -56 -13 -34 -116 -95 vhcurveto
          endchar
        </CharString>
        <CharString name="u">
          -61 callgsubr
          hstemhm
          90 82 206 83 hintmask 10111000
          90 424 -67 callgsubr
          hintmask 01111000
          -96 callsubr
          hintmask 10111000
          -100 callsubr
          endchar
        </CharString>
        <CharString name="uacute">
          -61 callgsubr
          hstemhm
          90 82 206 83 hintmask 10111000
          180 565 -99 callsubr
          -199 -262 -67 callgsubr
          hintmask 01111000
          -96 callsubr
          hintmask 10111000
          -100 callsubr
          endchar
        </CharString>
        <CharString name="ubreve">
          -61 callgsubr
          69 65 hstemhm
          90 82 -58 51 213 83 -79 34 hintmask 00000000
          hintmask 10110101
          165 706 -23 callsubr
          -75 -282 -67 callgsubr
          hintmask 01111010
          -96 callsubr
          hintmask 10111010
          -100 callsubr
          endchar
        </CharString>
        <CharString name="ucircumflex">
          -61 callgsubr
          hstemhm
          90 82 206 83 hintmask 10111000
          112 572 -103 callgsubr
          -128 -254 -67 callgsubr
          hintmask 01111000
          -96 callsubr
          hintmask 10111000
          -100 callsubr
          endchar
        </CharString>
        <CharString name="udieresis">
          -61 callgsubr
          91 116 hstemhm
          90 82 -64 106 105 106 -47 83 hintmask 00000000
          hintmask 10110110
          159 575 -39 callsubr
          -280 -151 -67 callgsubr
          hintmask 01111001
          -96 callsubr
          hintmask 10111001
          -100 callsubr
          endchar
        </CharString>
        <CharString name="ugrave">
          -61 callgsubr
          171 46 callsubr
          hintmask 10111100
          146 655 rmoveto
          -89 callsubr
          -56 -231 -67 callgsubr
          hintmask 01111100
          -96 callsubr
          hintmask 10111100
          -100 callsubr
          endchar
        </CharString>
        <CharString name="uhorn">
          -61 callgsubr
          hstemhm
          90 82 206 83 63 66 hintmask 10111100
          590 500 -94 callgsubr
          hintmask 01111100
          -27 callgsubr
          hintmask 10111100
          32 callsubr
        </CharString>
        <CharString name="uhungarumlaut">
          -61 callgsubr
          hstemhm
          90 82 206 83 hintmask 10111000
          177 -68 callgsubr
          -248 -245 -67 callgsubr
          hintmask 01111000
          -96 callsubr
          hintmask 10111000
          -100 callsubr
          endchar
        </CharString>
        <CharString name="umacron">
          -61 callgsubr
          122 57 -2 callgsubr
          hintmask 10111100
          111 -41 callsubr
          -353 -239 -67 callgsubr
          hintmask 01111100
          -96 callsubr
          hintmask 10111100
          -100 callsubr
          endchar
        </CharString>
        <CharString name="underscore">
          -57 -60 59 hstem
          0 450 vstem
          -1 vmoveto
          -59 450 59 vlineto
          endchar
        </CharString>
        <CharString name="uni00A0">
          -306 endchar
        </CharString>
        <CharString name="uni00AD">
          18 callsubr
        </CharString>
        <CharString name="uni00B2">
          -164 361 49 245 52 hstemhm
          36 89 -77 40 124 75 -19 39 hintmask 00000000
          hintmask 11100100
          36 398 38 callsubr
          hintmask 11011000
          -1 callgsubr
        </CharString>
        <CharString name="uni00B3">
          -164 355 48 116 45 95 48 hstemhm
          51 45 callgsubr
          hintmask 11110010
          53 460 31 callsubr
          hintmask 11101100
          8 callsubr
          61 callgsubr
          hintmask 11110010
          33 callgsubr
          endchar
        </CharString>
        <CharString name="uni00B5">
          -51 callgsubr
        </CharString>
        <CharString name="uni00B9">
          -164 361 42 247 51 hstem
          147 68 vstem
          56 401 rmoveto
          -40 250 40 vlineto
          -91 4 rlineto
          296 -54 vlineto
          -109 -10 rlineto
          -41 95 -245 vlineto
          endchar
        </CharString>
        <CharString name="uni0162">
          34 -187 42 145 44 -44 59 425 11 callgsubr
          0 68 95 49 hintmask 1100101000000000
          201 -34 callsubr
          hintmask 1100100100000000
          40 callgsubr
          hintmask 1100101000000000
          -17 4 rlineto
          29 103 44 vlineto
          hintmask 1010101010000000
          -82 15 rlineto
          531 143 vlineto
          hintmask 1101001010000000
          20 -106 rlineto
          49 hlineto
          hintmask 1100111010000000
          164 -511 vlineto
          hintmask 1101011000000000
          -164 49 vlineto
          hintmask 1010101000000000
          25 callgsubr
          hintmask 1100100100000000
          -82 -15 rlineto
          -44 107 vlineto
          -25 -59 -46 callgsubr
          vhcurveto
          hintmask 1100101000000000
          41 callsubr
          hvcurveto
          endchar
        </CharString>
        <CharString name="uni0163">
          -204 -187 42 141 68 -43 -21 442 53 hstemhm
          83 82 46 68 hintmask 10111100
          98 -34 callsubr
          60 63 21 70 hvcurveto
          hintmask 11011100
          42 callsubr
          vhcurveto
          -17 4 rlineto
          25 vlineto
          58 -67 callsubr
          78 -335 vlineto
          hintmask 10111100
          -54 14 -40 52 -13 vhcurveto
          -25 -59 -46 callgsubr
          41 callsubr
          vhcurveto
          endchar
        </CharString>
        <CharString name="uni018F">
          158 -13 57 261 55 244 56 hstemhm
          45 101 -41 49 365 101 hintmask 11110100
          620 333 rmoveto
          217 -98 110 -197 vhcurveto
          hintmask 11101100
          -122 -58 -26 -17 -40 hvcurveto
          -152 49 vlineto
          20 102 rlineto
          0 39 37 100 124 73 -98 -146 8 vhcurveto
          hintmask 11110100
          -471 hlineto
          -1 -15 -1 -15 -20 vvcurveto
          -196 98 -127 185 206 86 158 188 vhcurveto
          -281 -289 rmoveto
          -119 -71 76 185 -3 hvcurveto
          373 hlineto
          -174 -3 -49 -87 -128 hhcurveto
          endchar
        </CharString>
        <CharString name="uni019D">
          220 -144 -21 165 129 387 132 -58 58 -42 42 58 callsubr
          365 61 hintmask 11001110
          481 648 rmoveto
          -42 vlineto
          hintmask 11010110
          -16 callgsubr
          hintmask 11001110
          -33 callsubr
          hintmask 11010110
          65 -14 rlineto
          -681 vlineto
          -108 -26 -31 callgsubr
          0 30 -10 42 63 33 30 52 vhcurveto
          hintmask 11100110
          599 9 vlineto
          325 -516 rlineto
          92 hlineto
          hintmask 11010110
          590 vlineto
          hintmask 11001110
          69 16 rlineto
          42 vlineto
          endchar
        </CharString>
        <CharString name="uni01C4">
          -2 callsubr
          858 -92 callgsubr
          -925 -726 -55 callgsubr
        </CharString>
        <CharString name="uni01C5">
          16 callgsubr
          768 673 rmoveto
          -91 callsubr
          -747 -665 -60 callsubr
          hintmask 11011100
          7 callgsubr
          86 2 rmoveto
          hintmask 11101100
          -52 callsubr
          vhcurveto
          hintmask 11011100
          -65 -30 11 0 hvcurveto
          hintmask 11101111
          498 -12 -90 callgsubr
          endchar
        </CharString>
        <CharString name="uni01C6">
          16 callsubr
          hintmask 0101011000000000
          604 673 rmoveto
          -91 callsubr
          hintmask 1001011000000000
          -271 -660 rmoveto
          hintmask 0010111000000000
          -70 callgsubr
          hintmask 1001011000000000
          -161 87 -66 97 72 49 39 19 18 vhcurveto
          hintmask 0101011110000000
          194 1 -90 callgsubr
          -468 -3 rmoveto
          hintmask 1001011000000000
          -338 vlineto
          -9 -19 -44 -17 -45 hhcurveto
          -96 -30 62 128 148 58 42 82 hvcurveto
          hintmask 0101011110000000
          41 37 -10 -6 16 hvcurveto
          endchar
        </CharString>
        <CharString name="uni01C7">
          416 -14 51 -37 55 -55 162 424 62 -44 44 -18 callsubr
          213 49 47 48 137 87 hintmask 0100111010000000
          55 43 rmoveto
          -43 431 vlineto
          hintmask 0010111010000000
          162 -49 vlineto
          hintmask 0101011010000000
          -22 -107 rlineto
          -93 hlineto
          -98 8 rlineto
          523 vlineto
          hintmask 0100111110000000
          2 callgsubr
          395 97 rmoveto
          hintmask 1000111110000000
          -74 callgsubr
          -29 110 rlineto
          endchar
        </CharString>
        <CharString name="uni01C8">
          275 11 callsubr
          55 -55 162 332 -20 94 128 -91 43 -18 callsubr
          233 49 83 117 -88 82 hintmask 0000000000000000
          hintmask 0110110111000000
          645 -80 callsubr
          -590 -525 rmoveto
          -43 451 vlineto
          hintmask 0101101110100000
          162 -49 vlineto
          hintmask 0110101100100000
          -14 callgsubr
          372 -177 -68 callsubr
          hintmask 1010101100100000
          59 callgsubr
        </CharString>
        <CharString name="uni01C9">
          35 45 callsubr
          99 82 168 117 -88 82 hintmask 01111101
          -19 callsubr
          hintmask 01111110
          306 513 -105 callsubr
          -135 -685 rmoveto
          -38 vlineto
          0 35 -10 48 vhcurveto
          hintmask 01111101
          70 37 30 52 hvcurveto
          568 vlineto
          -79 callgsubr
          hintmask 10111101
          59 callgsubr
        </CharString>
        <CharString name="uni01CA">
          620 -14 51 -37 42 548 58 -44 44 58 callsubr
          365 61 126 48 137 87 hintmask 01011101
          61 callsubr
          458 9 vlineto
          325 -516 rlineto
          92 hlineto
          hintmask 01101101
          590 vlineto
          hintmask 01011101
          69 16 rlineto
          42 -199 -42 vlineto
          hintmask 01101101
          -16 callgsubr
          hintmask 01011111
          -33 callsubr
          65 -14 rlineto
          -532 vlineto
          612 99 rmoveto
          hintmask 10011111
          -74 callgsubr
          -29 110 rlineto
          endchar
        </CharString>
        <CharString name="uni01CB">
          479 11 callsubr
          42 452 -20 42 132 -80 128 -106 58 -42 42 58 callsubr
          365 61 182 117 -88 82 hintmask 0000000000000000
          hintmask 0111010011100000
          849 -80 callsubr
          -794 -526 rmoveto
          -42 200 42 vlineto
          -70 16 rlineto
          hintmask 0111100011010000
          458 9 vlineto
          325 -516 rlineto
          92 hlineto
          hintmask 0111001011010000
          590 vlineto
          hintmask 0111000111010000
          69 16 rlineto
          42 -199 -42 vlineto
          hintmask 0111001011010000
          -16 callgsubr
          hintmask 0111000111010000
          -33 callsubr
          hintmask 0111001011010000
          65 -14 rlineto
          -532 vlineto
          589 -175 -68 callsubr
          hintmask 1011000111010000
          59 callgsubr
        </CharString>
        <CharString name="uni01CC">
          328 11 callsubr
          8 callgsubr
          94 128 hstemhm
          106 82 206 82 166 117 -88 82 hintmask 0000000000000000
          hintmask 0111011110000000
          698 -80 callsubr
          -672 -527 -89 callgsubr
          hintmask 0110111101000000
          -53 callgsubr
          457 -172 -68 callsubr
          hintmask 1011011101000000
          59 callgsubr
        </CharString>
        <CharString name="uni01CD">
          -65 callsubr
          184 -92 callgsubr
          -315 -728 -70 callsubr
          hintmask 11101000
          -104 callsubr
          endchar
        </CharString>
        <CharString name="uni01CE">
          -35 callsubr
          92 673 rmoveto
          -91 callsubr
          182 -666 rmoveto
          4 hlineto
          hintmask 01111000
          -107 callgsubr
          hintmask 10111000
          -102 callsubr
          endchar
        </CharString>
        <CharString name="uni01CF">
          -26 callsubr
          65 -92 callgsubr
          -128 -725 rmoveto
          -88 callgsubr
          -530 vlineto
          endchar
        </CharString>
        <CharString name="uni01D0">
          -24 callgsubr
          42 callgsubr
          1 673 rmoveto
          -91 callsubr
          -7 -667 rmoveto
          -52 callgsubr
          -85 callgsubr
          endchar
        </CharString>
        <CharString name="uni01D1">
          -62 callgsubr
          228 -92 callgsubr
          -6 -782 -107 callsubr
          endchar
        </CharString>
        <CharString name="uni01D2">
          -30 callsubr
          101 673 rmoveto
          -91 callsubr
          101 -717 -106 callsubr
          endchar
        </CharString>
        <CharString name="uni01D3">
          -46 callsubr
          246 -92 callgsubr
          -241 -180 -105 callgsubr
          endchar
        </CharString>
        <CharString name="uni01D4">
          -61 callgsubr
          hstemhm
          90 82 206 83 hintmask 10111000
          117 673 rmoveto
          -91 callsubr
          -61 -284 -67 callgsubr
          hintmask 01111000
          -96 callsubr
          hintmask 10111000
          -100 callsubr
          endchar
        </CharString>
        <CharString name="uni01D5">
          -43 callgsubr
          38 116 75 58 66 callsubr
          -7 106 105 106 26 65 hintmask 11111001
          207 935 rmoveto
          -10 -58 rlineto
          332 hlineto
          10 58 rlineto
          hintmask 11110111
          -281 -249 -104 callgsubr
          hintmask 11111001
          -342 -97 -105 callgsubr
          endchar
        </CharString>
        <CharString name="uni01D6">
          -61 callgsubr
          91 116 112 57 hstemhm
          90 82 -66 106 105 106 -45 83 hintmask 1011110010000000
          106 860 rmoveto
          -10 -57 rlineto
          332 hlineto
          10 57 rlineto
          hintmask 1011101100000000
          -281 -285 -104 callgsubr
          hintmask 1011110010000000
          -278 -151 -67 callgsubr
          hintmask 0111110010000000
          -96 callsubr
          hintmask 1011110010000000
          -100 callsubr
          endchar
        </CharString>
        <CharString name="uni01D7">
          -6 callgsubr
          310 870 -98 callgsubr
          hintmask 11101110
          -183 -282 -104 callgsubr
          hintmask 11110010
          -342 -97 -105 callgsubr
          endchar
        </CharString>
        <CharString name="uni01D8">
          -7 callsubr
          216 762 -99 callsubr
          hintmask 10110110
          -168 -308 -39 callsubr
          -278 -151 -67 callgsubr
          hintmask 01111001
          -96 callsubr
          hintmask 10111001
          -100 callsubr
          endchar
        </CharString>
        <CharString name="uni01D9">
          -6 callgsubr
          248 988 rmoveto
          -33 -41 74 -61 rlineto
          -32 39 22 -22 16 hhcurveto
          14 16 17 37 46 hvcurveto
          79 64 -25 36 -126 -63 rlineto
          hintmask 11101110
          -112 -237 -104 callgsubr
          hintmask 11110010
          -342 -97 -105 callgsubr
          endchar
        </CharString>
        <CharString name="uni01DA">
          -7 callsubr
          119 870 rmoveto
          -91 callsubr
          hintmask 10110110
          4 -330 -39 callsubr
          -278 -151 -67 callgsubr
          hintmask 01111001
          -96 callsubr
          hintmask 10111001
          -100 callsubr
          endchar
        </CharString>
        <CharString name="uni01DB">
          -6 callgsubr
          225 921 -87 callgsubr
          hintmask 11101110
          33 -235 -104 callgsubr
          hintmask 11110010
          -342 -97 -105 callgsubr
          endchar
        </CharString>
        <CharString name="uni01DC">
          -7 callsubr
          126 852 rmoveto
          -89 callsubr
          hintmask 10110110
          31 -277 -39 callsubr
          -278 -151 -67 callgsubr
          hintmask 01111001
          -96 callsubr
          hintmask 10111001
          -100 callsubr
          endchar
        </CharString>
        <CharString name="uni01EA">
          189 -187 60 114 57 556 60 hstem
          45 101 196 66 142 101 vstem
          485 15 rmoveto
          115 54 51 123 146 vvcurveto
          193 -105 129 -180 -206 -115 -156 -191 -201 103 -125 196 21 20 2 2 19 vhcurveto
          -33 -24 -29 -35 -45 -59 callgsubr
          46 66 45 11 7 hvcurveto
          -339 304 rmoveto
          258 94 23 112 115 83 -47 -234 -172 -52 -103 -134 -142 -76 74 201 vhcurveto
          endchar
        </CharString>
        <CharString name="uni01EB">
          -10 -187 60 118 -16 callsubr
          hstem
          25 90 85 66 113 90 vstem
          343 15 rmoveto
          83 43 43 94 111 vvcurveto
          146 -72 95 -143 -142 -87 -123 -141 -151 73 -98 138 9 10 0 1 9 vhcurveto
          -34 -24 -30 -36 -45 -59 callgsubr
          46 66 45 11 7 hvcurveto
          -228 230 rmoveto
          128 21 73 112 99 32 -65 -136 -123 -29 -73 -95 -108 -32 77 119 vhcurveto
          endchar
        </CharString>
        <CharString name="uni01F1">
          -2 callsubr
          55 43 -55 callgsubr
        </CharString>
        <CharString name="uni01F2">
          16 callgsubr
          18 callgsubr
          hintmask 11011100
          7 callgsubr
          86 2 rmoveto
          hintmask 11101100
          -52 callsubr
          vhcurveto
          hintmask 11011100
          -65 -30 11 0 hvcurveto
          hintmask 11101111
          498 -12 -90 callgsubr
          endchar
        </CharString>
        <CharString name="uni01F3">
          16 callsubr
          hintmask 0000000000000000
          hintmask 1001011000000000
          367 48 rmoveto
          hintmask 0010111000000000
          -70 callgsubr
          hintmask 1001011000000000
          -161 87 -66 97 72 49 39 19 18 vhcurveto
          hintmask 0101011110000000
          194 1 -90 callgsubr
          -468 -3 rmoveto
          hintmask 1001011000000000
          -338 vlineto
          -9 -19 -44 -17 -45 hhcurveto
          -96 -30 62 128 148 58 42 82 hvcurveto
          hintmask 0101011110000000
          41 37 -10 -6 16 hvcurveto
          endchar
        </CharString>
        <CharString name="uni01F4">
          -42 callgsubr
          287 716 -98 callgsubr
          64 -787 -91 callgsubr
        </CharString>
        <CharString name="uni01F5">
          -31 callsubr
          hintmask 1101010100000000
          180 565 -99 callsubr
          hintmask 1101001010000000
          17 -578 -99 callgsubr
        </CharString>
        <CharString name="uni0200">
          -65 callsubr
          159 -81 callsubr
          -431 -662 -70 callsubr
          hintmask 11101000
          -104 callsubr
          endchar
        </CharString>
        <CharString name="uni0201">
          -35 callsubr
          140 -83 callsubr
          -51 -516 rmoveto
          4 hlineto
          hintmask 01111000
          -107 callgsubr
          hintmask 10111000
          -102 callsubr
          endchar
        </CharString>
        <CharString name="uni0202">
          -63 callsubr
          127 61 hstemhm
          -9 626 -168 168 hintmask 11111000
          383 -73 callgsubr
          -392 -651 -70 callsubr
          hintmask 11110100
          -104 callsubr
          endchar
        </CharString>
        <CharString name="uni0203">
          -25 callsubr
          139 65 hstemhm
          38 88 -37 34 184 82 -49 51 hintmask 00000000
          hintmask 10110101
          340 -69 callsubr
          hintmask 10111010
          -32 -513 rmoveto
          4 hlineto
          hintmask 01111010
          -107 callgsubr
          hintmask 10111010
          -102 callsubr
          endchar
        </CharString>
        <CharString name="uni0204">
          -84 callsubr
          175 -81 callsubr
          -383 -660 -103 callsubr
        </CharString>
        <CharString name="uni0205">
          -48 -48 callgsubr
          hstem
          25 26 callgsubr
          143 -83 callsubr
          42 -501 -106 callgsubr
          endchar
        </CharString>
        <CharString name="uni0206">
          -80 callgsubr
          112 61 -18 callsubr
          173 42 25 49 -40 49 hintmask 1010101110100000
          399 -73 callgsubr
          -344 -649 -72 callgsubr
        </CharString>
        <CharString name="uni0207">
          -48 -48 callgsubr
          139 65 hstemhm
          25 88 -21 34 205 81 -69 51 hintmask 00000000
          hintmask 11110101
          343 -69 callsubr
          61 -498 -40 callsubr
        </CharString>
        <CharString name="uni0208">
          -26 callsubr
          40 -81 callsubr
          -244 -659 rmoveto
          -88 callgsubr
          -530 vlineto
          endchar
        </CharString>
        <CharString name="uni0209">
          -24 callgsubr
          42 callgsubr
          49 -83 callsubr
          -240 -517 rmoveto
          -52 callgsubr
          -85 callgsubr
          endchar
        </CharString>
        <CharString name="uni020A">
          -138 0 44 560 44 112 61 hstem
          141 87 vstem
          264 -73 callgsubr
          -205 -648 rmoveto
          -88 callgsubr
          -530 vlineto
          endchar
        </CharString>
        <CharString name="uni020B">
          -24 callgsubr
          169 65 hstem
          -2 34 76 82 59 51 vstem
          249 -69 callsubr
          -221 -514 rmoveto
          -52 callgsubr
          -85 callgsubr
          endchar
        </CharString>
        <CharString name="uni020C">
          -62 callgsubr
          203 -81 callsubr
          -122 -716 -107 callsubr
          endchar
        </CharString>
        <CharString name="uni020D">
          -30 callsubr
          149 -83 callsubr
          -132 -567 -106 callsubr
          endchar
        </CharString>
        <CharString name="uni020E">
          189 -13 57 556 60 100 61 hstem
          45 101 404 101 vstem
          427 -73 callgsubr
          -83 -705 -107 callsubr
          endchar
        </CharString>
        <CharString name="uni020F">
          -10 -29 callsubr
          139 65 hstemhm
          25 90 -17 34 217 51 -21 90 hintmask 00000000
          hintmask 11101100
          349 -69 callsubr
          hintmask 11110010
          -113 -564 -106 callsubr
          endchar
        </CharString>
        <CharString name="uni0210">
          104 0 -19 callgsubr
          220 94 hintmask 11101100
          161 -81 callsubr
          -369 -660 -87 callsubr
          hintmask 11011100
          -43 vlineto
          83 -17 rlineto
          -528 vlineto
          149 268 rmoveto
          -63 hlineto
          hintmask 11101100
          -29 callgsubr
          hintmask 11011100
          53 callgsubr
        </CharString>
        <CharString name="uni0211">
          -148 19 callsubr
          67 -83 callsubr
          -256 -517 -78 callgsubr
          endchar
        </CharString>
        <CharString name="uni0212">
          104 0 43 230 55 263 57 -43 43 112 61 -18 callsubr
          220 94 hintmask 11101110
          385 -73 callgsubr
          -330 -649 -87 callsubr
          hintmask 11011110
          -77 callgsubr
          149 268 rmoveto
          -63 hlineto
          hintmask 11101110
          -29 callgsubr
          hintmask 11011110
          53 callgsubr
        </CharString>
</ttFont>
